<?xml version="1.0" encoding="utf-8"?>
<!-- Generator: Adobe Illustrator 22.1.0, SVG Export Plug-In . SVG Version: 6.00 Build 0)  -->
<svg version="1.1" id="Layer_1" xmlns="http://www.w3.org/2000/svg" xmlns:xlink="http://www.w3.org/1999/xlink" x="0px" y="0px"
	 viewBox="0 0 288 360" style="enable-background:new 0 0 288 360;" xml:space="preserve">
<style type="text/css">
	.st0{stroke:#000000;stroke-width:0.8;stroke-linejoin:round;}
	.st1{fill:none;stroke:#2CA02C;stroke-width:1.5;stroke-linecap:square;stroke-linejoin:round;}
	.st2{fill:none;stroke:#FF7F0E;stroke-width:1.5;stroke-linecap:square;stroke-linejoin:round;}
	.st3{stroke:#000000;stroke-linejoin:round;}
	.st4{fill:none;stroke:#000000;stroke-width:0.8;stroke-linecap:square;}
	.st5{opacity:0.8;fill:#FFFFFF;stroke:#CCCCCC;enable-background:new    ;}
	.st6{fill:none;stroke:#1F77B4;stroke-width:1.5;stroke-linecap:square;stroke-linejoin:round;}
	.st7{fill:#FFFFFF;}
	.st8{clip-path:url(#SVGID_2_);fill:none;stroke:#1F77B4;stroke-width:1.5;stroke-linecap:square;stroke-linejoin:round;}
	.st9{clip-path:url(#SVGID_4_);fill:none;stroke:#1F77B4;stroke-width:1.5;stroke-linecap:square;stroke-linejoin:round;}
	.st10{clip-path:url(#SVGID_6_);fill:none;stroke:#FF7F0E;stroke-width:1.5;stroke-linecap:square;stroke-linejoin:round;}
	.st11{opacity:0;}
	.st12{font-family:'MyriadPro-Regular';}
	.st13{font-size:10px;}
</style>
<g id="figure_1">
	<g id="axes_1">
		<g id="matplotlib.axis_1">
		</g>
		<g id="matplotlib.axis_2">
			<g id="ytick_1">
				<g id="line2d_1">
					<g>
						<g>
							<path id="mbbe5db13b7" class="st0" d="M36,169.6h-3.5"/>
						</g>
					</g>
				</g>
				<g id="text_1">
					<g transform="translate(6.734375 173.417823)scale(0.1 -0.1)">
						<g>
							<path id="DejaVuSans-48" d="M31.8,66.4c-5.1,0-8.9-2.5-11.5-7.5c-2.6-5-3.8-12.5-3.8-22.5c0-10,1.3-17.5,3.8-22.5
								c2.6-5,6.4-7.5,11.5-7.5c5.1,0,8.9,2.5,11.5,7.5c2.6,5,3.8,12.5,3.8,22.5c0,10-1.3,17.5-3.8,22.5
								C40.7,63.9,36.9,66.4,31.8,66.4z M31.8,74.2c8.2,0,14.4-3.2,18.7-9.7c4.3-6.5,6.5-15.8,6.5-28.1c0-12.3-2.2-21.6-6.5-28.1
								C46.2,1.8,40-1.4,31.8-1.4c-8.2,0-14.4,3.2-18.7,9.7c-4.3,6.5-6.5,15.8-6.5,28.1c0,12.3,2.2,21.7,6.5,28.1
								C17.4,71,23.6,74.2,31.8,74.2z"/>
						</g>
						<g>
							<path id="DejaVuSans-46" d="M74.3,12.4h10.3V0H74.3V12.4z"/>
						</g>
						<g>
							<path id="DejaVuSans-52" d="M133.2,64.3l-24.9-38.9h24.9V64.3z M130.6,72.9H143V25.4h10.4v-8.2H143V0h-9.8v17.2h-32.9v9.5
								L130.6,72.9z"/>
						</g>
						<g>
							<path id="DejaVuSans-54" d="M192,40.4c-4.4,0-7.9-1.5-10.5-4.5c-2.6-3-3.9-7.2-3.9-12.4c0-5.2,1.3-9.4,3.9-12.4
								c2.6-3,6.1-4.6,10.5-4.6s7.9,1.5,10.5,4.6c2.6,3.1,3.9,7.2,3.9,12.4c0,5.3-1.3,9.4-3.9,12.4C200,38.9,196.5,40.4,192,40.4z
								 M211.6,71.3v-9c-2.5,1.2-5,2.1-7.5,2.7c-2.5,0.6-5,0.9-7.5,0.9c-6.5,0-11.5-2.2-14.9-6.6c-3.4-4.4-5.4-11-5.9-19.9
								c1.9,2.8,4.3,5,7.2,6.5c2.9,1.5,6.1,2.3,9.6,2.3c7.3,0,13.1-2.2,17.4-6.7c4.2-4.4,6.4-10.5,6.4-18.1c0-7.5-2.2-13.5-6.6-18
								c-4.4-4.5-10.3-6.8-17.7-6.8c-8.4,0-14.9,3.2-19.3,9.7c-4.5,6.5-6.7,15.8-6.7,28.1c0,11.5,2.7,20.7,8.2,27.6
								s12.8,10.3,22,10.3c2.5,0,5-0.2,7.5-0.7S208.9,72.3,211.6,71.3z"/>
						</g>
					</g>
				</g>
			</g>
			<g id="ytick_2">
				<g id="line2d_2">
					<g>
						<g>
							<path id="mbbe5db13b7_1_" class="st0" d="M36,141.5h-3.5"/>
						</g>
					</g>
				</g>
				<g id="text_2">
					<g transform="translate(6.734375 145.3248)scale(0.1 -0.1)">
						<g>
							<path id="DejaVuSans-48_1_" d="M31.8,66.4c-5.1,0-8.9-2.5-11.5-7.5c-2.6-5-3.8-12.5-3.8-22.5c0-10,1.3-17.5,3.8-22.5
								c2.6-5,6.4-7.5,11.5-7.5c5.1,0,8.9,2.5,11.5,7.5c2.6,5,3.8,12.5,3.8,22.5c0,10-1.3,17.5-3.8,22.5
								C40.7,63.9,36.9,66.4,31.8,66.4z M31.8,74.2c8.2,0,14.4-3.2,18.7-9.7c4.3-6.5,6.5-15.8,6.5-28.1c0-12.3-2.2-21.6-6.5-28.1
								C46.2,1.8,40-1.4,31.8-1.4c-8.2,0-14.4,3.2-18.7,9.7c-4.3,6.5-6.5,15.8-6.5,28.1c0,12.3,2.2,21.7,6.5,28.1
								C17.4,71,23.6,74.2,31.8,74.2z"/>
						</g>
						<g>
							<path id="DejaVuSans-46_1_" d="M74.3,12.4h10.3V0H74.3V12.4z"/>
						</g>
						<g>
							<path id="DejaVuSans-52_1_" d="M133.2,64.3l-24.9-38.9h24.9V64.3z M130.6,72.9H143V25.4h10.4v-8.2H143V0h-9.8v17.2h-32.9v9.5
								L130.6,72.9z"/>
						</g>
						<g>
							<path id="DejaVuSans-56" d="M190.8,34.6c-4.7,0-8.4-1.3-11.1-3.8c-2.7-2.5-4-6-4-10.3c0-4.4,1.3-7.8,4-10.4
								c2.7-2.5,6.4-3.8,11.1-3.8s8.4,1.3,11.1,3.8c2.7,2.5,4.1,6,4.1,10.3c0,4.4-1.3,7.8-4,10.3C199.2,33.4,195.5,34.6,190.8,34.6z
								 M181,38.8c-4.2,1-7.5,3-9.9,5.9c-2.4,2.9-3.5,6.4-3.5,10.6c0,5.8,2.1,10.4,6.2,13.8c4.2,3.4,9.8,5.1,17.1,5.1
								c7.3,0,13-1.7,17.1-5.1c4.1-3.4,6.2-8,6.2-13.8c0-4.2-1.2-7.7-3.5-10.6c-2.4-2.9-5.6-4.9-9.8-5.9c4.8-1.1,8.4-3.3,11.1-6.5
								c2.7-3.2,4-7.2,4-11.8c0-7.1-2.2-12.5-6.5-16.3c-4.3-3.8-10.5-5.7-18.5-5.7c-8,0-14.2,1.9-18.5,5.7
								c-4.3,3.8-6.5,9.2-6.5,16.3c0,4.6,1.3,8.6,4,11.8C172.5,35.5,176.2,37.7,181,38.8z M177.3,54.4c0-3.8,1.2-6.7,3.5-8.8
								c2.4-2.1,5.7-3.2,9.9-3.2c4.2,0,7.6,1.1,9.9,3.2c2.4,2.1,3.6,5.1,3.6,8.8c0,3.8-1.2,6.7-3.6,8.8c-2.4,2.1-5.7,3.2-9.9,3.2
								c-4.3,0-7.6-1.1-9.9-3.2C178.5,61.1,177.3,58.2,177.3,54.4z"/>
						</g>
					</g>
				</g>
			</g>
			<g id="ytick_3">
				<g id="line2d_3">
					<g>
						<g>
							<path id="mbbe5db13b7_2_" class="st0" d="M36,113.4h-3.5"/>
						</g>
					</g>
				</g>
				<g id="text_3">
					<g transform="translate(6.734375 117.231777)scale(0.1 -0.1)">
						<g>
							<path id="DejaVuSans-48_2_" d="M31.8,66.4c-5.1,0-8.9-2.5-11.5-7.5c-2.6-5-3.8-12.5-3.8-22.5c0-10,1.3-17.5,3.8-22.5
								c2.6-5,6.4-7.5,11.5-7.5c5.1,0,8.9,2.5,11.5,7.5c2.6,5,3.8,12.5,3.8,22.5c0,10-1.3,17.5-3.8,22.5
								C40.7,63.9,36.9,66.4,31.8,66.4z M31.8,74.2c8.2,0,14.4-3.2,18.7-9.7c4.3-6.5,6.5-15.8,6.5-28.1c0-12.3-2.2-21.6-6.5-28.1
								C46.2,1.8,40-1.4,31.8-1.4c-8.2,0-14.4,3.2-18.7,9.7c-4.3,6.5-6.5,15.8-6.5,28.1c0,12.3,2.2,21.7,6.5,28.1
								C17.4,71,23.6,74.2,31.8,74.2z"/>
						</g>
						<g>
							<path id="DejaVuSans-46_2_" d="M74.3,12.4h10.3V0H74.3V12.4z"/>
						</g>
						<g>
							<path id="DejaVuSans-53" d="M106.2,72.9h38.7v-8.3h-29.7V46.7c1.4,0.5,2.9,0.9,4.3,1.1c1.4,0.2,2.9,0.4,4.3,0.4
								c8.1,0,14.6-2.2,19.3-6.7c4.8-4.5,7.1-10.5,7.1-18.1c0-7.8-2.4-13.9-7.3-18.3c-4.9-4.3-11.8-6.5-20.7-6.5
								c-3.1,0-6.2,0.3-9.4,0.8c-3.2,0.5-6.4,1.3-9.8,2.3v9.9c2.9-1.6,6-2.8,9.1-3.6s6.4-1.2,9.9-1.2c5.6,0,10.1,1.5,13.4,4.4
								c3.3,3,4.9,7,4.9,12.1c0,5.1-1.6,9.1-4.9,12c-3.3,3-7.7,4.5-13.4,4.5c-2.6,0-5.3-0.3-7.9-0.9c-2.6-0.6-5.3-1.5-8-2.7V72.9z"
								/>
						</g>
						<g>
							<path id="DejaVuSans-48_3_" d="M190.8,66.4c-5.1,0-8.9-2.5-11.5-7.5c-2.6-5-3.8-12.5-3.8-22.5c0-10,1.3-17.5,3.8-22.5
								c2.6-5,6.4-7.5,11.5-7.5c5.1,0,8.9,2.5,11.5,7.5c2.6,5,3.8,12.5,3.8,22.5c0,10-1.3,17.5-3.8,22.5
								C199.8,63.9,195.9,66.4,190.8,66.4z M190.8,74.2c8.2,0,14.4-3.2,18.7-9.7c4.3-6.5,6.5-15.8,6.5-28.1
								c0-12.3-2.2-21.6-6.5-28.1c-4.3-6.5-10.6-9.7-18.7-9.7c-8.2,0-14.4,3.2-18.7,9.7c-4.3,6.5-6.5,15.8-6.5,28.1
								c0,12.3,2.2,21.7,6.5,28.1C176.4,71,182.6,74.2,190.8,74.2z"/>
						</g>
					</g>
				</g>
			</g>
			<g id="ytick_4">
				<g id="line2d_4">
					<g>
						<g>
							<path id="mbbe5db13b7_3_" class="st0" d="M36,85.3h-3.5"/>
						</g>
					</g>
				</g>
				<g id="text_4">
					<g transform="translate(6.734375 89.138754)scale(0.1 -0.1)">
						<g>
							<path id="DejaVuSans-48_4_" d="M31.8,66.4c-5.1,0-8.9-2.5-11.5-7.5c-2.6-5-3.8-12.5-3.8-22.5c0-10,1.3-17.5,3.8-22.5
								c2.6-5,6.4-7.5,11.5-7.5c5.1,0,8.9,2.5,11.5,7.5c2.6,5,3.8,12.5,3.8,22.5c0,10-1.3,17.5-3.8,22.5
								C40.7,63.9,36.9,66.4,31.8,66.4z M31.8,74.2c8.2,0,14.4-3.2,18.7-9.7c4.3-6.5,6.5-15.8,6.5-28.1c0-12.3-2.2-21.6-6.5-28.1
								C46.2,1.8,40-1.4,31.8-1.4c-8.2,0-14.4,3.2-18.7,9.7c-4.3,6.5-6.5,15.8-6.5,28.1c0,12.3,2.2,21.7,6.5,28.1
								C17.4,71,23.6,74.2,31.8,74.2z"/>
						</g>
						<g>
							<path id="DejaVuSans-46_3_" d="M74.3,12.4h10.3V0H74.3V12.4z"/>
						</g>
						<g>
							<path id="DejaVuSans-53_1_" d="M106.2,72.9h38.7v-8.3h-29.7V46.7c1.4,0.5,2.9,0.9,4.3,1.1c1.4,0.2,2.9,0.4,4.3,0.4
								c8.1,0,14.6-2.2,19.3-6.7c4.8-4.5,7.1-10.5,7.1-18.1c0-7.8-2.4-13.9-7.3-18.3c-4.9-4.3-11.8-6.5-20.7-6.5
								c-3.1,0-6.2,0.3-9.4,0.8c-3.2,0.5-6.4,1.3-9.8,2.3v9.9c2.9-1.6,6-2.8,9.1-3.6s6.4-1.2,9.9-1.2c5.6,0,10.1,1.5,13.4,4.4
								c3.3,3,4.9,7,4.9,12.1c0,5.1-1.6,9.1-4.9,12c-3.3,3-7.7,4.5-13.4,4.5c-2.6,0-5.3-0.3-7.9-0.9c-2.6-0.6-5.3-1.5-8-2.7V72.9z"
								/>
						</g>
						<g>
							<path id="DejaVuSans-50" d="M178.2,8.3h34.4V0h-46.3v8.3c3.7,3.9,8.8,9.1,15.3,15.6c6.5,6.5,10.5,10.7,12.2,12.6
								c3.2,3.5,5.4,6.5,6.6,9c1.3,2.5,1.9,4.9,1.9,7.2c0,3.9-1.4,7-4.1,9.5c-2.7,2.4-6.3,3.7-10.6,3.7c-3.1,0-6.4-0.5-9.8-1.6
								c-3.4-1.1-7.1-2.7-11-4.9v10c4,1.6,7.7,2.8,11.1,3.6c3.5,0.8,6.6,1.2,9.5,1.2c7.6,0,13.6-1.9,18.1-5.7
								c4.5-3.8,6.7-8.8,6.7-15.1c0-3-0.6-5.8-1.7-8.5c-1.1-2.7-3.2-5.8-6.1-9.5c-0.8-0.9-3.4-3.7-7.8-8.2
								C192.3,22.7,186.2,16.4,178.2,8.3z"/>
						</g>
					</g>
				</g>
			</g>
			<g id="ytick_5">
				<g id="line2d_5">
					<g>
						<g>
							<path id="mbbe5db13b7_4_" class="st0" d="M36,57.2h-3.5"/>
						</g>
					</g>
				</g>
				<g id="text_5">
					<g transform="translate(6.734375 61.04573)scale(0.1 -0.1)">
						<g>
							<path id="DejaVuSans-48_5_" d="M31.8,66.4c-5.1,0-8.9-2.5-11.5-7.5c-2.6-5-3.8-12.5-3.8-22.5c0-10,1.3-17.5,3.8-22.5
								c2.6-5,6.4-7.5,11.5-7.5c5.1,0,8.9,2.5,11.5,7.5c2.6,5,3.8,12.5,3.8,22.5c0,10-1.3,17.5-3.8,22.5
								C40.7,63.9,36.9,66.4,31.8,66.4z M31.8,74.2c8.2,0,14.4-3.2,18.7-9.7c4.3-6.5,6.5-15.8,6.5-28.1c0-12.3-2.2-21.6-6.5-28.1
								C46.2,1.8,40-1.4,31.8-1.4c-8.2,0-14.4,3.2-18.7,9.7c-4.3,6.5-6.5,15.8-6.5,28.1c0,12.3,2.2,21.7,6.5,28.1
								C17.4,71,23.6,74.2,31.8,74.2z"/>
						</g>
						<g>
							<path id="DejaVuSans-46_4_" d="M74.3,12.4h10.3V0H74.3V12.4z"/>
						</g>
						<g>
							<path id="DejaVuSans-53_2_" d="M106.2,72.9h38.7v-8.3h-29.7V46.7c1.4,0.5,2.9,0.9,4.3,1.1c1.4,0.2,2.9,0.4,4.3,0.4
								c8.1,0,14.6-2.2,19.3-6.7c4.8-4.5,7.1-10.5,7.1-18.1c0-7.8-2.4-13.9-7.3-18.3c-4.9-4.3-11.8-6.5-20.7-6.5
								c-3.1,0-6.2,0.3-9.4,0.8c-3.2,0.5-6.4,1.3-9.8,2.3v9.9c2.9-1.6,6-2.8,9.1-3.6s6.4-1.2,9.9-1.2c5.6,0,10.1,1.5,13.4,4.4
								c3.3,3,4.9,7,4.9,12.1c0,5.1-1.6,9.1-4.9,12c-3.3,3-7.7,4.5-13.4,4.5c-2.6,0-5.3-0.3-7.9-0.9c-2.6-0.6-5.3-1.5-8-2.7V72.9z"
								/>
						</g>
						<g>
							<path id="DejaVuSans-52_2_" d="M196.8,64.3l-24.9-38.9h24.9V64.3z M194.2,72.9h12.4V25.4H217v-8.2h-10.4V0h-9.8v17.2h-32.9
								v9.5L194.2,72.9z"/>
						</g>
					</g>
				</g>
			</g>
		</g>
		<g id="line2d_6">
			<g>
				<path class="st1" d="M0,0"/>
			</g>
		</g>
		<g id="line2d_7">
			<g>
				<path class="st1" d="M46.1,155.4l0.4,0.5l0.4-2.6l0.8-7l0.4-1l0.4-0.5l0.4-2.1l0.4-1.2l1.1,3.3l0.8,4.7l0.4-1.4l0.4-2.8
					l1.5-15.6l0.4-1l0.8,2.4l0.4-0.7l0.4-2l0.4-3.2l0.4-5l0.4-3.2l0.4,0.2l0.4,0l0.4,0.1l0.4,1.7l0.4,0.5l0.4-1.3l0.8,0.9l1.1-3.6
					l0.4-0.3l0.4,0.8l1.1-2.5l0.8-5.5l0.4,0.4l0.4-0.4l0.4-0.8l0.4-2.2l0.8-7.1l0.4-1.1l0.4-0.6l0.4,1.9l0.4,2.5l0.4-1.8l0.4-2.7
					l0.4-0.6l0.4-0.3l0.4,1.1l0.8,6l0.4,2.5l0.4,0.2l0.4-4l0.4-2.2l0.4-1.3l0.4-4.1l0.4-1.7l0.4,2l0.4,0.5l0.4-0.1l0.4,1.4l0.4,0.3
					l0.4-0.5l0.4-1.7l0.4-3.1l0.8-2.8l0.4-2.4l0.4-0.3l0.4,1l0.8-1.2l0.4,0.9l0.4-1.1l0.8-3.2l0.8-6.1l0.4-1.2l0.8-3.2l0.4,0
					l0.4-0.4l0.4,0.2l0.4,0.4l0.4-0.3l0.4,1.3l0.4,0.2l0.4-0.4l0.4,1.8l1.1,7.8l0.4,2l0.4-0.2l0.4,0.1l0.4-1.5l0.4-2.9l0.4-0.9
					l0.4-0.3l0.4-1.4l0.4,0.8l0.4,1.5l0.4-0.4l0.4,0.5l0.4,1.4l0.4,0.3l0.4,0.7l0.4,0.4l0.4-1.9l0.4-1.1l0.4-1.8l0.4-3.1l0.4-1.3
					l0.4,0.7l0.4-0.5l0.4-0.9l0.4-0.4l0.4,0l0.4-0.4l0.4-0.9l0.4,0.6l0.4,1.7l0.4-0.2l0.8-1l0.4-1.8l0.4-2.4l0.4-1.7l0.4-1l0.4,0.2
					l0.4,1.1l0.8,1.2l0.4,0.2l0.8-4.1l0.4,0.1l0.4-0.3l0.4-1.7l0.4,0.2l0.4,0.6l0.4-1.8l0.4-0.2l0.4,1.9l0.8,1.3l0.4,1.2l0.4-0.6
					l0.4-1.9l0.4-0.1l0.4,0.3l0.4,0l0.4,0.5l0.8,1.8l0.4,0.1l0.4-0.7l0.8-0.4l0.4-1.2l0.4,0l0.4,0.9l0.4-0.2l0.4,0.3l0.4-0.7
					l0.4-1.7l0.4-0.6l0.4-1l0.4-1.7l0.4,0l0.4,0.1l0.4-0.8l0.4,0.5l0.4,0.9l0.4,0.2l0.4,2.2l0.4,1.5l0.4-0.5l0.4,0.6l0.4-0.2
					l0.4-2.2l0.4-0.4l0.4,0.4l0.4-1.1l0.4,0.8l0.4,1.3l0.4-1l0.4,0.4l0.4,1.2l0.4-0.7l0.4,0.2l0.4,2.2l0.4,0.7l0.4,0.4l0.4,0.8
					l0.4-0.5l0.8-2.6l0.4-0.2l0.4,0.3l0.4-1.8l0.4-2.3l1.1-2.6l0.8,2.9l0.4,0.4l0.8,1.1l0.8-2.8l0.4,0.3l0.4-0.5l0.4,0.1l0.4,0.9
					l0.4-0.1l0.8-0.6l0.4-1.1l0.4-0.6l0.4,0.3l0.4-0.4l0.4,0.4l0.4-0.1l0.4-0.7L137,56l0.4-0.9l0.4,1.1l0.4,2.4l0.4,0.8l0.8,3.1
					l0.4-1l0.4-0.5l0.4-1.2l0.4-2l0.4-0.5l0.4-0.1l0.4-1.2l0.4,0.3l0.4,0.1l0.8-2.9l0.4-0.3l0.4-0.5l0.4,0.2l0.4,1.7l0.8,5.7
					l1.1,2.3l0.4-0.1l0.4-1.5l0.8,0.4l0.4-0.9l0.4,0.1l0.4,0.8l0.4,0l0.4,1.2l0.4,1.8l0.4-1.7l0.4-0.9l0.4,0.3l0.4-2.2l0.4-0.3
					l0.4,2.2l0.4,1.2l0.8,4.2l0.4-1.1l0.4,0.2l0.4,0.9l0.4-2.5l0.4-0.8l0.4,1.3l0.8-1.7l0.4,1.8l0.4,0.4l0.4-0.4l0.4,0.4l0.4-0.7
					l0.8-2.4l0.4-0.6l0.4,0.5l0.4,2.5l1.1,4.3l0.4-0.5l0.4-1.4l0.8,0.6l0.4-0.1l0.8,1.1l0.4-0.3l0.4,0.2l0.8-1.4l0.8,0.9l0.4-0.2
					l0.4,0.5L168,70l0.4,2.1l0.8,1.9l0.4,0.5l0.4-0.3l0.8-3.6l0.4,0l0.4-1.7l0.4-0.6l0.4,0.4l0.4,0.8l0.4,0.5l0.4,1.7l0.4,0.7
					l0.8-5.1l0.4-0.9l0.8,4.6l0.4,1l0.4,3.4l0.4,0.2L177,71l0.4-2.2l0.8,2.4l0.8,7.9l0.4-0.2l0.4,0.8l0.4-1.5l0.4-3.7l0.4,0.7
					l0.4,0.3l0.4-1.8l0.8,4.1l0.4-1.3l0.4,0.5l0.4,2.4l0.4,0.5l0.4-0.6l0.4,0.3l0.4,1.1l0.4-0.8l0.4-1.9l0.8-1.6l0.4-2.6l0.4,0.3
					l0.4,4l0.4,0.7l0.4-0.8l0.4,2.8l0.4,0.4l0.4-1.8l0.4,0.8l0.4,0.2l0.4-2l0.4-0.1l0.4-0.5l0.4-1.6l0.4-0.1l0.4,2.3l0.4,1.4
					l0.4,0.2l0.4,1l0.4,0.1l0.8-3.3l0.4-0.2l0.4,1.4l0.4,0.3l0.8,2.4l0.4,0l0.4,2l0.4,3.6l0.4,0.3l0.4-0.7l0.4-0.1l0.8-3.6l0.4,2.5
					l0.4,1.6l0.4-1.1l0.4-1.9l0.8-4.3l0.4,0l0.8,6l0.4,3.7l0.4,1.4l0.4-0.6l0.4-1.6l0.4-0.8l0.4,0.5l0.4-1.5l0.4-0.4l0.4-1.2
					l0.8-4.9l0.4-0.5l0.4,0l0.4,1.2l0.8,4.8l0.4,3.2l0.8,2.9l0.4,0.2l0.4-2.1l0.4-0.5l0.4,0.1l0.4-2.2l0.4-1l0.4,0.4l0.8,2.5
					l0.8,2.8l0.4,0.8l0.4-1.9l0.4-2.7l0.4,0l0.4-0.6l0.4-1.1l0.4,3.6l0.4,5l0.8,4.7l0.4,0.1l0.8-9.4l0.8-5l0.8,3.3l0.4-1.4l0.4,0.1
					l0.4,2.1l0.4-1.1l0.4,0.2l0.4,4.3l0.8,5.2l0.4,1.3l0.8-6.2l0.4-0.3l0.4-1.8L226,94l0.4,6.8l0.4,1.9l0.4,0.2l0.4-1l0.4-3.5
					l0.4-1.9l0.4,0.9l0.4,1.5l0.4,3.3l0.4,1.3l0.4-3.6l0.4-2l0.4-0.1l0.4-2.4l0.4-0.6l0.4,1.8l0.4,0.2l0.4,0.6l0.4,1.6l0.4,0.5
					l0.4,3.3l0.4,0.7l0.4-5.4l0.4-0.3l0.4,3.1l0.4,2.1l0.4,2.8l0.4,4.9l0.4-2.2l1.1-11.5l0.4-2.2l0.4,1.3l0.4,2.6l0.4,1.2l0.4-0.7
					l0.8-1.6l0.8-5.9l0.4,2.7l0.4,1.7l0.4-1.8l0.8,7.3l0.8-2.9l0.4-0.4l0.8-6.2l0.4,0.4l0.4,2.2l0.8,8.2l0.4,2.4l0.4,1.3l0.4-0.2
					l1.1-7.7l0,0"/>
			</g>
		</g>
		<g id="line2d_8">
			<g>
				<path class="st2" d="M0,0"/>
			</g>
		</g>
		<g id="line2d_9">
			<g>
				<g>
					<path id="ma3b6147cd9" class="st3" d="M30,172.6l12-6"/>
				</g>
				<g>
					<path id="ma3b6147cd9_1_" class="st3" d="M253.2,172.6l12-6"/>
				</g>
			</g>
		</g>
		<g id="patch_3">
			<path class="st4" d="M36,169.6V43.2"/>
		</g>
		<path class="st5" d="M179.4,164.6h72.8c1.3,0,2-0.7,2-2v-43c0-1.3-0.7-2-2-2h-72.8c-1.3,0-2,0.7-2,2v43
			C177.4,164,178.1,164.6,179.4,164.6z"/>
		<path class="st1" d="M181.4,125.7h20"/>
		<path class="st6" d="M181.4,140.4h20"/>
		<path class="st2" d="M181.4,155h20"/>
	</g>
	<g id="axes_2">
		<g id="patch_6">
			<path class="st7" d="M36,315h223.2V188.6H36V315z"/>
		</g>
		<g id="matplotlib.axis_3">
			<g id="xtick_1">
				<g id="line2d_16">
					<g>
						<g>
							<path id="me44199a745" class="st0" d="M41.6,315v3.5"/>
						</g>
					</g>
				</g>
				<g id="text_9">
					<g transform="translate(38.438351 329.598437)scale(0.1 -0.1)">
						<g>
							<path id="DejaVuSans-48_6_" d="M31.8,66.4c-5.1,0-8.9-2.5-11.5-7.5c-2.6-5-3.8-12.5-3.8-22.5c0-10,1.3-17.5,3.8-22.5
								c2.6-5,6.4-7.5,11.5-7.5c5.1,0,8.9,2.5,11.5,7.5c2.6,5,3.8,12.5,3.8,22.5c0,10-1.3,17.5-3.8,22.5
								C40.7,63.9,36.9,66.4,31.8,66.4z M31.8,74.2c8.2,0,14.4-3.2,18.7-9.7c4.3-6.5,6.5-15.8,6.5-28.1c0-12.3-2.2-21.6-6.5-28.1
								C46.2,1.8,40-1.4,31.8-1.4c-8.2,0-14.4,3.2-18.7,9.7c-4.3,6.5-6.5,15.8-6.5,28.1c0,12.3,2.2,21.7,6.5,28.1
								C17.4,71,23.6,74.2,31.8,74.2z"/>
						</g>
					</g>
				</g>
			</g>
			<g id="xtick_2">
				<g id="line2d_17">
					<g>
						<g>
							<path id="me44199a745_1_" class="st0" d="M79.3,315v3.5"/>
						</g>
					</g>
				</g>
				<g id="text_10">
					<g transform="translate(69.791296 329.598437)scale(0.1 -0.1)">
						<g>
							<path id="DejaVuSans-49" d="M12.4,8.3h16.1v55.6L11,60.4v9l17.4,3.5h9.9V8.3h16.1V0h-42V8.3z"/>
						</g>
						<g>
							<path id="DejaVuSans-48_7_" d="M95.4,66.4c-5.1,0-8.9-2.5-11.5-7.5c-2.6-5-3.8-12.5-3.8-22.5c0-10,1.3-17.5,3.8-22.5
								c2.6-5,6.4-7.5,11.5-7.5c5.1,0,8.9,2.5,11.5,7.5c2.6,5,3.8,12.5,3.8,22.5c0,10-1.3,17.5-3.8,22.5
								C104.4,63.9,100.5,66.4,95.4,66.4z M95.4,74.2c8.2,0,14.4-3.2,18.7-9.7c4.3-6.5,6.5-15.8,6.5-28.1c0-12.3-2.2-21.6-6.5-28.1
								c-4.3-6.5-10.6-9.7-18.7-9.7c-8.2,0-14.4,3.2-18.7,9.7c-4.3,6.5-6.5,15.8-6.5,28.1c0,12.3,2.2,21.7,6.5,28.1
								C81,71,87.2,74.2,95.4,74.2z"/>
						</g>
						<g>
							<path id="DejaVuSans-48_8_" d="M159,66.4c-5.1,0-8.9-2.5-11.5-7.5c-2.6-5-3.8-12.5-3.8-22.5c0-10,1.3-17.5,3.8-22.5
								c2.6-5,6.4-7.5,11.5-7.5c5.1,0,8.9,2.5,11.5,7.5c2.6,5,3.8,12.5,3.8,22.5c0,10-1.3,17.5-3.8,22.5
								C168,63.9,164.1,66.4,159,66.4z M159,74.2c8.2,0,14.4-3.2,18.7-9.7c4.3-6.5,6.5-15.8,6.5-28.1c0-12.3-2.2-21.6-6.5-28.1
								c-4.3-6.5-10.6-9.7-18.7-9.7c-8.2,0-14.4,3.2-18.7,9.7c-4.3,6.5-6.5,15.8-6.5,28.1c0,12.3,2.2,21.7,6.5,28.1
								C144.6,71,150.9,74.2,159,74.2z"/>
						</g>
					</g>
				</g>
			</g>
			<g id="xtick_3">
				<g id="line2d_18">
					<g>
						<g>
							<path id="me44199a745_2_" class="st0" d="M117.1,315v3.5"/>
						</g>
					</g>
				</g>
				<g id="text_11">
					<g transform="translate(107.50674 329.598437)scale(0.1 -0.1)">
						<g>
							<path id="DejaVuSans-50_2_" d="M19.2,8.3h34.4V0H7.3v8.3c3.7,3.9,8.8,9.1,15.3,15.6c6.5,6.5,10.5,10.7,12.2,12.6
								c3.2,3.5,5.4,6.5,6.6,9c1.3,2.5,1.9,4.9,1.9,7.2c0,3.9-1.4,7-4.1,9.5c-2.7,2.4-6.3,3.7-10.6,3.7c-3.1,0-6.4-0.5-9.8-1.6
								c-3.4-1.1-7.1-2.7-11-4.9v10c4,1.6,7.7,2.8,11.1,3.6c3.5,0.8,6.6,1.2,9.5,1.2c7.6,0,13.6-1.9,18.1-5.7
								c4.5-3.8,6.7-8.8,6.7-15.1c0-3-0.6-5.8-1.7-8.5c-1.1-2.7-3.2-5.8-6.1-9.5c-0.8-0.9-3.4-3.7-7.8-8.2
								C33.3,22.7,27.1,16.4,19.2,8.3z"/>
						</g>
						<g>
							<path id="DejaVuSans-48_9_" d="M95.4,66.4c-5.1,0-8.9-2.5-11.5-7.5c-2.6-5-3.8-12.5-3.8-22.5c0-10,1.3-17.5,3.8-22.5
								c2.6-5,6.4-7.5,11.5-7.5c5.1,0,8.9,2.5,11.5,7.5c2.6,5,3.8,12.5,3.8,22.5c0,10-1.3,17.5-3.8,22.5
								C104.4,63.9,100.5,66.4,95.4,66.4z M95.4,74.2c8.2,0,14.4-3.2,18.7-9.7c4.3-6.5,6.5-15.8,6.5-28.1c0-12.3-2.2-21.6-6.5-28.1
								c-4.3-6.5-10.6-9.7-18.7-9.7c-8.2,0-14.4,3.2-18.7,9.7c-4.3,6.5-6.5,15.8-6.5,28.1c0,12.3,2.2,21.7,6.5,28.1
								C81,71,87.2,74.2,95.4,74.2z"/>
						</g>
						<g>
							<path id="DejaVuSans-48_10_" d="M159,66.4c-5.1,0-8.9-2.5-11.5-7.5c-2.6-5-3.8-12.5-3.8-22.5c0-10,1.3-17.5,3.8-22.5
								c2.6-5,6.4-7.5,11.5-7.5c5.1,0,8.9,2.5,11.5,7.5c2.6,5,3.8,12.5,3.8,22.5c0,10-1.3,17.5-3.8,22.5
								C168,63.9,164.1,66.4,159,66.4z M159,74.2c8.2,0,14.4-3.2,18.7-9.7c4.3-6.5,6.5-15.8,6.5-28.1c0-12.3-2.2-21.6-6.5-28.1
								c-4.3-6.5-10.6-9.7-18.7-9.7c-8.2,0-14.4,3.2-18.7,9.7c-4.3,6.5-6.5,15.8-6.5,28.1c0,12.3,2.2,21.7,6.5,28.1
								C144.6,71,150.9,74.2,159,74.2z"/>
						</g>
					</g>
				</g>
			</g>
			<g id="xtick_4">
				<g id="line2d_19">
					<g>
						<g>
							<path id="me44199a745_3_" class="st0" d="M154.8,315v3.5"/>
						</g>
					</g>
				</g>
				<g id="text_12">
					<g transform="translate(145.222184 329.598437)scale(0.1 -0.1)">
						<g>
							<path id="DejaVuSans-51_4_" d="M40.6,39.3c4.7-1,8.4-3.1,11-6.3c2.7-3.2,4-7.1,4-11.8c0-7.2-2.5-12.8-7.4-16.7
								c-4.9-3.9-12-5.9-21.1-5.9c-3.1,0-6.2,0.3-9.4,0.9S11.1,1,7.6,2.2v9.5c2.7-1.6,5.7-2.8,9-3.6c3.3-0.8,6.7-1.2,10.2-1.2
								c6.2,0,10.9,1.2,14.1,3.7s4.9,6,4.9,10.6c0,4.3-1.5,7.7-4.5,10.1c-3,2.4-7.2,3.6-12.6,3.6h-8.5V43h8.9c4.8,0,8.6,1,11.1,2.9
								s3.9,4.7,3.9,8.4c0,3.7-1.3,6.6-4,8.6c-2.6,2-6.4,3-11.4,3c-2.7,0-5.6-0.3-8.7-0.9c-3.1-0.6-6.5-1.5-10.2-2.7v8.8
								c3.8,1,7.3,1.8,10.5,2.3s6.4,0.8,9.2,0.8c7.5,0,13.4-1.7,17.8-5.1c4.4-3.4,6.5-8,6.5-13.8c0-4-1.2-7.5-3.5-10.2
								S44.8,40.4,40.6,39.3z"/>
						</g>
						<g>
							<path id="DejaVuSans-48_11_" d="M95.4,66.4c-5.1,0-8.9-2.5-11.5-7.5c-2.6-5-3.8-12.5-3.8-22.5c0-10,1.3-17.5,3.8-22.5
								c2.6-5,6.4-7.5,11.5-7.5c5.1,0,8.9,2.5,11.5,7.5c2.6,5,3.8,12.5,3.8,22.5c0,10-1.3,17.5-3.8,22.5
								C104.4,63.9,100.5,66.4,95.4,66.4z M95.4,74.2c8.2,0,14.4-3.2,18.7-9.7c4.3-6.5,6.5-15.8,6.5-28.1c0-12.3-2.2-21.6-6.5-28.1
								c-4.3-6.5-10.6-9.7-18.7-9.7c-8.2,0-14.4,3.2-18.7,9.7c-4.3,6.5-6.5,15.8-6.5,28.1c0,12.3,2.2,21.7,6.5,28.1
								C81,71,87.2,74.2,95.4,74.2z"/>
						</g>
						<g>
							<path id="DejaVuSans-48_12_" d="M159,66.4c-5.1,0-8.9-2.5-11.5-7.5c-2.6-5-3.8-12.5-3.8-22.5c0-10,1.3-17.5,3.8-22.5
								c2.6-5,6.4-7.5,11.5-7.5c5.1,0,8.9,2.5,11.5,7.5c2.6,5,3.8,12.5,3.8,22.5c0,10-1.3,17.5-3.8,22.5
								C168,63.9,164.1,66.4,159,66.4z M159,74.2c8.2,0,14.4-3.2,18.7-9.7c4.3-6.5,6.5-15.8,6.5-28.1c0-12.3-2.2-21.6-6.5-28.1
								c-4.3-6.5-10.6-9.7-18.7-9.7c-8.2,0-14.4,3.2-18.7,9.7c-4.3,6.5-6.5,15.8-6.5,28.1c0,12.3,2.2,21.7,6.5,28.1
								C144.6,71,150.9,74.2,159,74.2z"/>
						</g>
					</g>
				</g>
			</g>
			<g id="xtick_5">
				<g id="line2d_20">
					<g>
						<g>
							<path id="me44199a745_4_" class="st0" d="M192.5,315v3.5"/>
						</g>
					</g>
				</g>
				<g id="text_13">
					<g transform="translate(182.937629 329.598437)scale(0.1 -0.1)">
						<g>
							<path id="DejaVuSans-52_3_" d="M37.8,64.3L12.9,25.4h24.9V64.3z M35.2,72.9h12.4V25.4H58v-8.2H47.6V0h-9.8v17.2H4.9v9.5
								L35.2,72.9z"/>
						</g>
						<g>
							<path id="DejaVuSans-48_13_" d="M95.4,66.4c-5.1,0-8.9-2.5-11.5-7.5c-2.6-5-3.8-12.5-3.8-22.5c0-10,1.3-17.5,3.8-22.5
								c2.6-5,6.4-7.5,11.5-7.5c5.1,0,8.9,2.5,11.5,7.5c2.6,5,3.8,12.5,3.8,22.5c0,10-1.3,17.5-3.8,22.5
								C104.4,63.9,100.5,66.4,95.4,66.4z M95.4,74.2c8.2,0,14.4-3.2,18.7-9.7c4.3-6.5,6.5-15.8,6.5-28.1c0-12.3-2.2-21.6-6.5-28.1
								c-4.3-6.5-10.6-9.7-18.7-9.7c-8.2,0-14.4,3.2-18.7,9.7c-4.3,6.5-6.5,15.8-6.5,28.1c0,12.3,2.2,21.7,6.5,28.1
								C81,71,87.2,74.2,95.4,74.2z"/>
						</g>
						<g>
							<path id="DejaVuSans-48_14_" d="M159,66.4c-5.1,0-8.9-2.5-11.5-7.5c-2.6-5-3.8-12.5-3.8-22.5c0-10,1.3-17.5,3.8-22.5
								c2.6-5,6.4-7.5,11.5-7.5c5.1,0,8.9,2.5,11.5,7.5c2.6,5,3.8,12.5,3.8,22.5c0,10-1.3,17.5-3.8,22.5
								C168,63.9,164.1,66.4,159,66.4z M159,74.2c8.2,0,14.4-3.2,18.7-9.7c4.3-6.5,6.5-15.8,6.5-28.1c0-12.3-2.2-21.6-6.5-28.1
								c-4.3-6.5-10.6-9.7-18.7-9.7c-8.2,0-14.4,3.2-18.7,9.7c-4.3,6.5-6.5,15.8-6.5,28.1c0,12.3,2.2,21.7,6.5,28.1
								C144.6,71,150.9,74.2,159,74.2z"/>
						</g>
					</g>
				</g>
			</g>
			<g id="xtick_6">
				<g id="line2d_21">
					<g>
						<g>
							<path id="me44199a745_5_" class="st0" d="M230.2,315v3.5"/>
						</g>
					</g>
				</g>
				<g id="text_14">
					<g transform="translate(220.653073 329.598437)scale(0.1 -0.1)">
						<g>
							<path id="DejaVuSans-53_3_" d="M10.8,72.9h38.7v-8.3H19.8V46.7c1.4,0.5,2.9,0.9,4.3,1.1c1.4,0.2,2.9,0.4,4.3,0.4
								c8.1,0,14.6-2.2,19.3-6.7c4.8-4.5,7.1-10.5,7.1-18.1c0-7.8-2.4-13.9-7.3-18.3c-4.9-4.3-11.8-6.5-20.7-6.5
								c-3.1,0-6.2,0.3-9.4,0.8c-3.2,0.5-6.4,1.3-9.8,2.3v9.9c2.9-1.6,6-2.8,9.1-3.6s6.4-1.2,9.9-1.2c5.6,0,10.1,1.5,13.4,4.4
								c3.3,3,4.9,7,4.9,12.1c0,5.1-1.6,9.1-4.9,12c-3.3,3-7.7,4.5-13.4,4.5c-2.6,0-5.3-0.3-7.9-0.9c-2.6-0.6-5.3-1.5-8-2.7V72.9z"
								/>
						</g>
						<g>
							<path id="DejaVuSans-48_15_" d="M95.4,66.4c-5.1,0-8.9-2.5-11.5-7.5c-2.6-5-3.8-12.5-3.8-22.5c0-10,1.3-17.5,3.8-22.5
								c2.6-5,6.4-7.5,11.5-7.5c5.1,0,8.9,2.5,11.5,7.5c2.6,5,3.8,12.5,3.8,22.5c0,10-1.3,17.5-3.8,22.5
								C104.4,63.9,100.5,66.4,95.4,66.4z M95.4,74.2c8.2,0,14.4-3.2,18.7-9.7c4.3-6.5,6.5-15.8,6.5-28.1c0-12.3-2.2-21.6-6.5-28.1
								c-4.3-6.5-10.6-9.7-18.7-9.7c-8.2,0-14.4,3.2-18.7,9.7c-4.3,6.5-6.5,15.8-6.5,28.1c0,12.3,2.2,21.7,6.5,28.1
								C81,71,87.2,74.2,95.4,74.2z"/>
						</g>
						<g>
							<path id="DejaVuSans-48_16_" d="M159,66.4c-5.1,0-8.9-2.5-11.5-7.5c-2.6-5-3.8-12.5-3.8-22.5c0-10,1.3-17.5,3.8-22.5
								c2.6-5,6.4-7.5,11.5-7.5c5.1,0,8.9,2.5,11.5,7.5c2.6,5,3.8,12.5,3.8,22.5c0,10-1.3,17.5-3.8,22.5
								C168,63.9,164.1,66.4,159,66.4z M159,74.2c8.2,0,14.4-3.2,18.7-9.7c4.3-6.5,6.5-15.8,6.5-28.1c0-12.3-2.2-21.6-6.5-28.1
								c-4.3-6.5-10.6-9.7-18.7-9.7c-8.2,0-14.4,3.2-18.7,9.7c-4.3,6.5-6.5,15.8-6.5,28.1c0,12.3,2.2,21.7,6.5,28.1
								C144.6,71,150.9,74.2,159,74.2z"/>
						</g>
					</g>
				</g>
			</g>
		</g>
		<g id="matplotlib.axis_4">
			<g id="ytick_6">
				<g id="line2d_22">
					<g>
						<g>
							<path id="mbbe5db13b7_5_" class="st0" d="M36,303.5h-3.5"/>
						</g>
					</g>
				</g>
				<g id="text_15">
					<g transform="translate(6.734375 307.306618)scale(0.1 -0.1)">
						<g>
							<path id="DejaVuSans-48_17_" d="M31.8,66.4c-5.1,0-8.9-2.5-11.5-7.5c-2.6-5-3.8-12.5-3.8-22.5c0-10,1.3-17.5,3.8-22.5
								c2.6-5,6.4-7.5,11.5-7.5c5.1,0,8.9,2.5,11.5,7.5c2.6,5,3.8,12.5,3.8,22.5c0,10-1.3,17.5-3.8,22.5
								C40.7,63.9,36.9,66.4,31.8,66.4z M31.8,74.2c8.2,0,14.4-3.2,18.7-9.7c4.3-6.5,6.5-15.8,6.5-28.1c0-12.3-2.2-21.6-6.5-28.1
								C46.2,1.8,40-1.4,31.8-1.4c-8.2,0-14.4,3.2-18.7,9.7c-4.3,6.5-6.5,15.8-6.5,28.1c0,12.3,2.2,21.7,6.5,28.1
								C17.4,71,23.6,74.2,31.8,74.2z"/>
						</g>
						<g>
							<path id="DejaVuSans-46_5_" d="M74.3,12.4h10.3V0H74.3V12.4z"/>
						</g>
						<g>
							<path id="DejaVuSans-48_18_" d="M127.2,66.4c-5.1,0-8.9-2.5-11.5-7.5c-2.6-5-3.8-12.5-3.8-22.5c0-10,1.3-17.5,3.8-22.5
								c2.6-5,6.4-7.5,11.5-7.5c5.1,0,8.9,2.5,11.5,7.5c2.6,5,3.8,12.5,3.8,22.5c0,10-1.3,17.5-3.8,22.5
								C136.1,63.9,132.3,66.4,127.2,66.4z M127.2,74.2c8.2,0,14.4-3.2,18.7-9.7c4.3-6.5,6.5-15.8,6.5-28.1
								c0-12.3-2.2-21.6-6.5-28.1c-4.3-6.5-10.6-9.7-18.7-9.7c-8.2,0-14.4,3.2-18.7,9.7c-4.3,6.5-6.5,15.8-6.5,28.1
								c0,12.3,2.2,21.7,6.5,28.1C112.8,71,119,74.2,127.2,74.2z"/>
						</g>
						<g>
							<path id="DejaVuSans-55_1_" d="M167.2,72.9h46.9v-4.2L187.6,0h-10.3l24.9,64.6h-35V72.9z"/>
						</g>
					</g>
				</g>
			</g>
			<g id="ytick_7">
				<g id="line2d_23">
					<g>
						<g>
							<path id="mbbe5db13b7_6_" class="st0" d="M36,280.5h-3.5"/>
						</g>
					</g>
				</g>
				<g id="text_16">
					<g transform="translate(6.734375 284.321417)scale(0.1 -0.1)">
						<g>
							<path id="DejaVuSans-48_19_" d="M31.8,66.4c-5.1,0-8.9-2.5-11.5-7.5c-2.6-5-3.8-12.5-3.8-22.5c0-10,1.3-17.5,3.8-22.5
								c2.6-5,6.4-7.5,11.5-7.5c5.1,0,8.9,2.5,11.5,7.5c2.6,5,3.8,12.5,3.8,22.5c0,10-1.3,17.5-3.8,22.5
								C40.7,63.9,36.9,66.4,31.8,66.4z M31.8,74.2c8.2,0,14.4-3.2,18.7-9.7c4.3-6.5,6.5-15.8,6.5-28.1c0-12.3-2.2-21.6-6.5-28.1
								C46.2,1.8,40-1.4,31.8-1.4c-8.2,0-14.4,3.2-18.7,9.7c-4.3,6.5-6.5,15.8-6.5,28.1c0,12.3,2.2,21.7,6.5,28.1
								C17.4,71,23.6,74.2,31.8,74.2z"/>
						</g>
						<g>
							<path id="DejaVuSans-46_6_" d="M74.3,12.4h10.3V0H74.3V12.4z"/>
						</g>
						<g>
							<path id="DejaVuSans-48_20_" d="M127.2,66.4c-5.1,0-8.9-2.5-11.5-7.5c-2.6-5-3.8-12.5-3.8-22.5c0-10,1.3-17.5,3.8-22.5
								c2.6-5,6.4-7.5,11.5-7.5c5.1,0,8.9,2.5,11.5,7.5c2.6,5,3.8,12.5,3.8,22.5c0,10-1.3,17.5-3.8,22.5
								C136.1,63.9,132.3,66.4,127.2,66.4z M127.2,74.2c8.2,0,14.4-3.2,18.7-9.7c4.3-6.5,6.5-15.8,6.5-28.1
								c0-12.3-2.2-21.6-6.5-28.1c-4.3-6.5-10.6-9.7-18.7-9.7c-8.2,0-14.4,3.2-18.7,9.7c-4.3,6.5-6.5,15.8-6.5,28.1
								c0,12.3,2.2,21.7,6.5,28.1C112.8,71,119,74.2,127.2,74.2z"/>
						</g>
						<g>
							<path id="DejaVuSans-56_1_" d="M190.8,34.6c-4.7,0-8.4-1.3-11.1-3.8c-2.7-2.5-4-6-4-10.3c0-4.4,1.3-7.8,4-10.4
								c2.7-2.5,6.4-3.8,11.1-3.8s8.4,1.3,11.1,3.8c2.7,2.5,4.1,6,4.1,10.3c0,4.4-1.3,7.8-4,10.3C199.2,33.4,195.5,34.6,190.8,34.6z
								 M181,38.8c-4.2,1-7.5,3-9.9,5.9c-2.4,2.9-3.5,6.4-3.5,10.6c0,5.8,2.1,10.4,6.2,13.8c4.2,3.4,9.8,5.1,17.1,5.1
								c7.3,0,13-1.7,17.1-5.1s6.2-8,6.2-13.8c0-4.2-1.2-7.7-3.5-10.6c-2.4-2.9-5.6-4.9-9.8-5.9c4.8-1.1,8.4-3.3,11.1-6.5
								c2.7-3.2,4-7.2,4-11.8c0-7.1-2.2-12.5-6.5-16.3c-4.3-3.8-10.5-5.7-18.5-5.7c-8,0-14.2,1.9-18.5,5.7
								c-4.3,3.8-6.5,9.2-6.5,16.3c0,4.6,1.3,8.6,4,11.8C172.5,35.5,176.2,37.7,181,38.8z M177.3,54.4c0-3.8,1.2-6.7,3.5-8.8
								c2.4-2.1,5.7-3.2,9.9-3.2c4.2,0,7.6,1.1,9.9,3.2c2.4,2.1,3.6,5.1,3.6,8.8c0,3.8-1.2,6.7-3.6,8.8c-2.4,2.1-5.7,3.2-9.9,3.2
								c-4.3,0-7.6-1.1-9.9-3.2C178.5,61.1,177.3,58.2,177.3,54.4z"/>
						</g>
					</g>
				</g>
			</g>
			<g id="ytick_8">
				<g id="line2d_24">
					<g>
						<g>
							<path id="mbbe5db13b7_7_" class="st0" d="M36,257.5h-3.5"/>
						</g>
					</g>
				</g>
				<g id="text_17">
					<g transform="translate(6.734375 261.336217)scale(0.1 -0.1)">
						<g>
							<path id="DejaVuSans-48_21_" d="M31.8,66.4c-5.1,0-8.9-2.5-11.5-7.5c-2.6-5-3.8-12.5-3.8-22.5c0-10,1.3-17.5,3.8-22.5
								c2.6-5,6.4-7.5,11.5-7.5c5.1,0,8.9,2.5,11.5,7.5c2.6,5,3.8,12.5,3.8,22.5c0,10-1.3,17.5-3.8,22.5
								C40.7,63.9,36.9,66.4,31.8,66.4z M31.8,74.2c8.2,0,14.4-3.2,18.7-9.7c4.3-6.5,6.5-15.8,6.5-28.1c0-12.3-2.2-21.6-6.5-28.1
								C46.2,1.8,40-1.4,31.8-1.4c-8.2,0-14.4,3.2-18.7,9.7c-4.3,6.5-6.5,15.8-6.5,28.1c0,12.3,2.2,21.7,6.5,28.1
								C17.4,71,23.6,74.2,31.8,74.2z"/>
						</g>
						<g>
							<path id="DejaVuSans-46_7_" d="M74.3,12.4h10.3V0H74.3V12.4z"/>
						</g>
						<g>
							<path id="DejaVuSans-48_22_" d="M127.2,66.4c-5.1,0-8.9-2.5-11.5-7.5c-2.6-5-3.8-12.5-3.8-22.5c0-10,1.3-17.5,3.8-22.5
								c2.6-5,6.4-7.5,11.5-7.5c5.1,0,8.9,2.5,11.5,7.5c2.6,5,3.8,12.5,3.8,22.5c0,10-1.3,17.5-3.8,22.5
								C136.1,63.9,132.3,66.4,127.2,66.4z M127.2,74.2c8.2,0,14.4-3.2,18.7-9.7c4.3-6.5,6.5-15.8,6.5-28.1
								c0-12.3-2.2-21.6-6.5-28.1c-4.3-6.5-10.6-9.7-18.7-9.7c-8.2,0-14.4,3.2-18.7,9.7c-4.3,6.5-6.5,15.8-6.5,28.1
								c0,12.3,2.2,21.7,6.5,28.1C112.8,71,119,74.2,127.2,74.2z"/>
						</g>
						<g>
							<path id="DejaVuSans-57_1_" d="M170,1.5v9c2.5-1.2,5-2.1,7.5-2.7c2.5-0.6,5-0.9,7.5-0.9c6.5,0,11.5,2.2,14.9,6.6
								c3.4,4.4,5.4,11,5.9,20c-1.9-2.8-4.3-5-7.2-6.5c-2.9-1.5-6.1-2.2-9.6-2.2c-7.3,0-13.1,2.2-17.3,6.6
								c-4.2,4.4-6.4,10.5-6.4,18.1c0,7.5,2.2,13.5,6.6,18c4.4,4.5,10.3,6.8,17.7,6.8c8.4,0,14.9-3.2,19.3-9.7
								c4.4-6.5,6.7-15.8,6.7-28.1c0-11.5-2.7-20.7-8.2-27.5C202,2,194.7-1.4,185.5-1.4c-2.5,0-5,0.2-7.5,0.7
								C175.4-0.2,172.8,0.5,170,1.5z M189.6,32.4c4.4,0,7.9,1.5,10.5,4.5c2.6,3,3.9,7.2,3.9,12.5c0,5.2-1.3,9.4-3.9,12.4
								c-2.6,3-6.1,4.6-10.5,4.6s-7.9-1.5-10.5-4.6c-2.6-3-3.9-7.2-3.9-12.4c0-5.3,1.3-9.4,3.9-12.5
								C181.7,33.9,185.2,32.4,189.6,32.4z"/>
						</g>
					</g>
				</g>
			</g>
			<g id="ytick_9">
				<g id="line2d_25">
					<g>
						<g>
							<path id="mbbe5db13b7_8_" class="st0" d="M36,234.6h-3.5"/>
						</g>
					</g>
				</g>
				<g id="text_18">
					<g transform="translate(6.734375 238.351016)scale(0.1 -0.1)">
						<g>
							<path id="DejaVuSans-48_23_" d="M31.8,66.4c-5.1,0-8.9-2.5-11.5-7.5c-2.6-5-3.8-12.5-3.8-22.5c0-10,1.3-17.5,3.8-22.5
								c2.6-5,6.4-7.5,11.5-7.5c5.1,0,8.9,2.5,11.5,7.5c2.6,5,3.8,12.5,3.8,22.5c0,10-1.3,17.5-3.8,22.5
								C40.7,63.9,36.9,66.4,31.8,66.4z M31.8,74.2c8.2,0,14.4-3.2,18.7-9.7c4.3-6.5,6.5-15.8,6.5-28.1c0-12.3-2.2-21.6-6.5-28.1
								C46.2,1.8,40-1.4,31.8-1.4c-8.2,0-14.4,3.2-18.7,9.7c-4.3,6.5-6.5,15.8-6.5,28.1c0,12.3,2.2,21.7,6.5,28.1
								C17.4,71,23.6,74.2,31.8,74.2z"/>
						</g>
						<g>
							<path id="DejaVuSans-46_8_" d="M74.3,12.4h10.3V0H74.3V12.4z"/>
						</g>
						<g>
							<path id="DejaVuSans-49_1_" d="M107.8,8.3h16.1v55.6l-17.5-3.5v9l17.4,3.5h9.9V8.3h16.1V0h-42V8.3z"/>
						</g>
						<g>
							<path id="DejaVuSans-48_24_" d="M190.8,66.4c-5.1,0-8.9-2.5-11.5-7.5c-2.6-5-3.8-12.5-3.8-22.5c0-10,1.3-17.5,3.8-22.5
								c2.6-5,6.4-7.5,11.5-7.5c5.1,0,8.9,2.5,11.5,7.5c2.6,5,3.8,12.5,3.8,22.5c0,10-1.3,17.5-3.8,22.5
								C199.8,63.9,195.9,66.4,190.8,66.4z M190.8,74.2c8.2,0,14.4-3.2,18.7-9.7c4.3-6.5,6.5-15.8,6.5-28.1
								c0-12.3-2.2-21.6-6.5-28.1c-4.3-6.5-10.6-9.7-18.7-9.7c-8.2,0-14.4,3.2-18.7,9.7c-4.3,6.5-6.5,15.8-6.5,28.1
								c0,12.3,2.2,21.7,6.5,28.1C176.4,71,182.6,74.2,190.8,74.2z"/>
						</g>
					</g>
				</g>
			</g>
			<g id="ytick_10">
				<g id="line2d_26">
					<g>
						<g>
							<path id="mbbe5db13b7_9_" class="st0" d="M36,211.6h-3.5"/>
						</g>
					</g>
				</g>
				<g id="text_19">
					<g transform="translate(6.734375 215.365815)scale(0.1 -0.1)">
						<g>
							<path id="DejaVuSans-48_25_" d="M31.8,66.4c-5.1,0-8.9-2.5-11.5-7.5c-2.6-5-3.8-12.5-3.8-22.5c0-10,1.3-17.5,3.8-22.5
								c2.6-5,6.4-7.5,11.5-7.5c5.1,0,8.9,2.5,11.5,7.5c2.6,5,3.8,12.5,3.8,22.5c0,10-1.3,17.5-3.8,22.5
								C40.7,63.9,36.9,66.4,31.8,66.4z M31.8,74.2c8.2,0,14.4-3.2,18.7-9.7c4.3-6.5,6.5-15.8,6.5-28.1c0-12.3-2.2-21.6-6.5-28.1
								C46.2,1.8,40-1.4,31.8-1.4c-8.2,0-14.4,3.2-18.7,9.7c-4.3,6.5-6.5,15.8-6.5,28.1c0,12.3,2.2,21.7,6.5,28.1
								C17.4,71,23.6,74.2,31.8,74.2z"/>
						</g>
						<g>
							<path id="DejaVuSans-46_9_" d="M74.3,12.4h10.3V0H74.3V12.4z"/>
						</g>
						<g>
							<path id="DejaVuSans-49_2_" d="M107.8,8.3h16.1v55.6l-17.5-3.5v9l17.4,3.5h9.9V8.3h16.1V0h-42V8.3z"/>
						</g>
						<g>
							<path id="DejaVuSans-49_3_" d="M171.4,8.3h16.1v55.6L170,60.4v9l17.4,3.5h9.9V8.3h16.1V0h-42V8.3z"/>
						</g>
					</g>
				</g>
			</g>
			<g id="ytick_11">
				<g id="line2d_27">
					<g>
						<g>
							<path id="mbbe5db13b7_10_" class="st0" d="M36,188.6h-3.5"/>
						</g>
					</g>
				</g>
				<g id="text_20">
					<g transform="translate(6.734375 192.380614)scale(0.1 -0.1)">
						<g>
							<path id="DejaVuSans-48_26_" d="M31.8,66.4c-5.1,0-8.9-2.5-11.5-7.5c-2.6-5-3.8-12.5-3.8-22.5c0-10,1.3-17.5,3.8-22.5
								c2.6-5,6.4-7.5,11.5-7.5c5.1,0,8.9,2.5,11.5,7.5c2.6,5,3.8,12.5,3.8,22.5c0,10-1.3,17.5-3.8,22.5
								C40.7,63.9,36.9,66.4,31.8,66.4z M31.8,74.2c8.2,0,14.4-3.2,18.7-9.7c4.3-6.5,6.5-15.8,6.5-28.1c0-12.3-2.2-21.6-6.5-28.1
								C46.2,1.8,40-1.4,31.8-1.4c-8.2,0-14.4,3.2-18.7,9.7c-4.3,6.5-6.5,15.8-6.5,28.1c0,12.3,2.2,21.7,6.5,28.1
								C17.4,71,23.6,74.2,31.8,74.2z"/>
						</g>
						<g>
							<path id="DejaVuSans-46_10_" d="M74.3,12.4h10.3V0H74.3V12.4z"/>
						</g>
						<g>
							<path id="DejaVuSans-49_4_" d="M107.8,8.3h16.1v55.6l-17.5-3.5v9l17.4,3.5h9.9V8.3h16.1V0h-42V8.3z"/>
						</g>
						<g>
							<path id="DejaVuSans-50_3_" d="M178.2,8.3h34.4V0h-46.3v8.3c3.7,3.9,8.8,9.1,15.3,15.6c6.5,6.5,10.5,10.7,12.2,12.6
								c3.2,3.5,5.4,6.5,6.6,9c1.3,2.5,1.9,4.9,1.9,7.2c0,3.9-1.4,7-4.1,9.5c-2.7,2.4-6.3,3.7-10.6,3.7c-3.1,0-6.4-0.5-9.8-1.6
								c-3.4-1.1-7.1-2.7-11-4.9v10c4,1.6,7.7,2.8,11.1,3.6c3.5,0.8,6.6,1.2,9.5,1.2c7.6,0,13.6-1.9,18.1-5.7
								c4.5-3.8,6.7-8.8,6.7-15.1c0-3-0.6-5.8-1.7-8.5c-1.1-2.7-3.2-5.8-6.1-9.5c-0.8-0.9-3.4-3.7-7.8-8.2
								C192.3,22.7,186.2,16.4,178.2,8.3z"/>
						</g>
					</g>
				</g>
			</g>
		</g>
		<g id="line2d_28">
			<g>
				<defs>
					<rect id="SVGID_1_" x="36" y="188.6" width="223.2" height="126.4"/>
				</defs>
				<clipPath id="SVGID_2_">
					<use xlink:href="#SVGID_1_"  style="overflow:visible;"/>
				</clipPath>
				<path class="st8" d="M46.1,300.5l0.4,0.8l0.4,0.4L48,299l1.1-4.9l0.4-0.5l0.4-0.1l0.4,0.2l0.4,0.9l0.4,0.5l0.4-0.1l0.4-0.6
					l1.1-3.4l0.8-1.4l0.4,0.2l0.4,0l0.4-0.2l0.4,0l0.4-0.8l0.4-1.4l0.4-0.4l0.4-0.2l0.4-0.6l0.4,0.5l0.4,1.1l1.1,1.7l0.4-0.2
					l0.4-0.5l0.4-0.3l0.4-0.5l1.1-2.2l0.8-2.4l0.4-0.2l0.8,2l0.4,0.9l0.4-0.1l0.4-1.7l0.8-4.8l0.4-1l0.4,1l1.1,4.7l0.4,0.4l0.8-1.4
					l0.4-0.1l0.4,0.6l0.4,0.2l0.8-0.3l0.4-0.7l0.8-1.9l0.4-0.7l0.4-0.3l0.4-0.1l0.4-0.3l0.4,0.1l0.8,2.2l0.8,0.7l0.4-0.2l1.1-3.9
					l0.4-1.1l0.4-0.6l0.4,0.1l0.4-0.4l0.4-0.8l0.8,0.3l0.4-0.4l0.4-0.2l0.4,0.4l0.4-0.7l0.8-3l0.8-2l0.4-0.2l0.4,0.3l0.8,1.3l0.4,0
					l0.4-0.2l0.4,0.3l0.8,0.1l0.4,0.5l0.4-0.2l0.4-0.7l0.4-1.1l0.4-1.5l0.4-1l0.4-0.2l0.4,0.6l0.8,2.5l0.4,0.5l0.4,0.2l0.8-0.9
					l0.4,0.2l0.4,0.5l0.4-0.1l0.4,0.2l0.4,0.8l0.4,0.1l0.4-0.2l0.4,0.5l0.4,0.1l0.4-1l0.8-3l0.8-3l0.4-0.6l0.4-0.2l0.4-0.3l0.4-0.6
					l0.4-0.2l0.4-0.4l0.8-1.6l0.4-0.2l0.4-1.2l0.4-1.7l0.4-0.7l0.4-0.4l0.4,0.1l0.4,0.4l0.8,0.1l0.4-0.3l0.4-1.1l0.4-0.6l0.8-0.7
					l0.4,0.5l0.4-0.1l0.4-0.9l0.8-1.1l0.8-2.9l0.4,0.1l0.4,1l0.8,0.8l0.4,0.9l0.4,0l0.8-1.5l0.8-1.4l0.8-1.1l0.8,0.8l0.8-0.8
					l0.4-0.7l0.4-0.5l0.4,0.2l0.4,0.7l0.4,0.4l0.4,0.1l1.1-2.1l0.8,0.7l0.4-0.7l0.4-0.3l0.4,0.7l0.8-1.3l0.4,0.9l0.4,1.3l0.8,0.6
					l0.4,0.9l0.4,0.3l0.8-1.8l0.4,0.1l0.4-0.1l0.4,0.1l0.4,0.9l0.4,0.3l0.4,0.2l0.4,0.4l0.4-0.4l0.4-1.1l0.4-0.2l0.4,0.5l0.8,0.1
					l0.8,1.4l0.8-1.4l0.4,0.5l0.4,0.7l0.4,0.1l0.8-1.5l0.4-0.8l0.8-1.8l0.4,1.2l0.8,3.7l0.4,0.8l0.4-0.2l0.4-1.3l0.4-1.8l1.1-2.7
					l0.8,1.4l0.4,0.2l0.4,0.8l0.4,1.3l0.8,1.3l0.4,0.3l0.4-0.5l0.4-0.1l0.8,0.1l0.4,1.1l0.4,1.5l0.4,0.6l0.4,0.1l0.4-0.4l1.1-3.2
					l0.4,0.4l0.4-0.1l0.4-0.5l0.4,0.2l0.4-0.6l0.4-1.1l0.4-0.1l0.4-0.6l0.4-0.4l0.8,2.6l0.4,0.1l0.4,0.9l0.4,0.4l0.8-2.7l0.8-1.1
					l0.8-0.5l0.8,0.4l0.4-0.1l0.4,0.5l0.4,0.7l0.4-0.6l1.5-5.1l0.4-0.1l0.4,0.3l0.8,1.1l0.4,0l0.4-0.6l0.4,0.5l0.4,0l0.8-1.8l0.4,0
					l0.4-1l0.4-1.5l0.4-0.2l0.4,0.9l0.4-0.1l0.4-0.7l0.4,0.2l0.4-0.3l0.4-0.9l0.4-0.3l0.4,0.3l0.4-0.1l0.4,0.3l0.4-0.3l1.5-5.7
					l0.4,0l0.8,0.2l0.4,0l0.4-1.2l0.4-2.1l0.4-1.4l0.4,0l0.4,0.1l1.1,0.9l0.8-2.3l0.4,0.2l0.4-0.3l0.4,0.3l0.4,1l0.4,0.2l0.8,1.2
					l0.4-1.1l1.5-6.3l0.4-0.4l0.8-0.3l0.4-0.4l0.4-0.6l0.4-1.7l0.4-0.1l0.4,1.1l0.4,0.2l0.4-0.4l0.4,0.4l0.4-0.9l0.4-1.3l0.4,0.1
					l0.4-1l0.4-0.4l0.4,1l0.4-1l0.4-1.8l0.8,1.5l0.4-1.2l0.8-0.3l0.4-0.9l1.1,0.2l0.8,1.9l0.4-1.3l0.4-0.3l0.4,1.5l0.4,0.5l0.4-1
					l0.8-0.6l0.4-1.6l0.8-0.6l0.4,1.1l0.4,0.3l0.4-1.1l0.8,1.3l0.4-0.8l0.4,0.4l0.4,1.2l0.4-2.4l0.4-0.2l0.4,2.2l0.4,0.4l0.4-0.1
					l0.4,0.7l0.4-0.2l0.4,0l0.4-0.4l0.4,0.8l0.8,2.6l0.4-0.4l0.8-1.8l0.4,0.8l0.4,0.4l0.4-0.6l0.4-0.3l0.4-0.5l0.4-1.3l1.1-0.1
					l0.4-0.3l0.8-1.6l0.4,0.3l0.4,1.5l0.4,0.8l0.4,0.3l0.4-0.1l0.4,0.7l0.4,1.7l1.1,3.3l0.4,0.7l0.4-1.7l0.4-0.3l1.1,3.2l0.4,2.8
					l0.4,1.6l0.8-5.1l0.4-0.1l0.8-2.7l0.4,1.3l0.4,0.4l0.4-0.9l0.4-1.2l0.8-4.6l0.4-0.1l0.4-0.4l0.4-1.2l0.8,4.2l0.4,0l0.8-0.4
					l0.4-2l0.4-0.8l0.4,0.5l0.4-0.2l0.4,1.1l0.4,1.6l0.4,1l0.4-0.1l0.4,0.9l0.4,1.7l0.4,0.7l0.8-1.7l0.4-0.5l0.4-3l0.4-1.2l0.4,1.6
					l0.4,1l0.4,1.8l0.4,2.5l0.4,0.7l0.4-2.1l0.4-0.4l0.8-4.6l0.4-0.1l0.4-1.4l0.4-2.7l0.4-0.4l0.4,1.8l0.4,0.1l0.4,0.9l0.4,1.2
					l0.4-1l0.4-2.6l0.4-1.2l0.4,1.4l0.4-0.7l0.4-0.9l0.4-1.7l1.1-7.3l0.4-1l0.4,2.1l0.4-0.2l0.4,1.3l0.8,5.9l0.4-1.4l0.4-1l0.8-6.4
					l0.4,0.3l1.1,5.9l0.4-0.1l0.4-4.4l0.4-2.4l0.4-0.4l0.4,0.2l0.4,1l0.4,0.7l0.4,0.4l0.8,4.2l0.4,0.8l0.4,3l0.4,0.4l0.4-2.5
					l0.4-3.9l1.1-3.1l0.8,6.7l0.4-1.5l0.4-3l0.4-0.5l0.8-5.9l0.4,1.2l0.4,2.9l0.4-0.1l0,0"/>
			</g>
		</g>
		<g id="line2d_29">
			<g>
				<defs>
					<rect id="SVGID_3_" x="36" y="188.6" width="223.2" height="126.4"/>
				</defs>
				<clipPath id="SVGID_4_">
					<use xlink:href="#SVGID_3_"  style="overflow:visible;"/>
				</clipPath>
				<path class="st9" d="M0,0"/>
			</g>
		</g>
		<g id="line2d_30">
			<g>
				<defs>
					<rect id="SVGID_5_" x="36" y="188.6" width="223.2" height="126.4"/>
				</defs>
				<clipPath id="SVGID_6_">
					<use xlink:href="#SVGID_5_"  style="overflow:visible;"/>
				</clipPath>
				<path class="st10" d="M46.1,288.4l0.4,0l0.4-0.4l1.5-7.6l0.4-0.8l1.1,4.3l0.4,2l0.4,1l0.4-0.8l0.4-0.5l0.4-0.1l0.8-2.8l0.4,0.1
					l0.4-0.9l0.4-1.4l0.4,0.2l0.4,1.1l0.8-1.1l0.4-0.2l0.4-1.5l0.4-2.1l0.8-0.7l0.4,0.2l0.8,2.3l0.4,0.8l0.4,1.3l0.4,0.4l0.4-0.6
					l0.4,0.2l0.4-0.5l0.4-1.3l1.1-2.4l0.4,0.6l0.8,2.1l0.4,0.2l0.4-0.4l0.4-1.9l0.4-2.9l0.4-1.9l0.4-0.5l0.4,0l0.4,0.9l0.4,1.3
					l0.4,0.8l0.4,0.5l0.4-0.1l0.4-0.7l0.4-0.3l0.8,2.7l0.4,0l0.8,0.7l0.8-3.9l0.4-0.9l0.4-0.3l0.4,0l0.8,1.3l0.8,0.1l0.4,0l0.4-0.2
					l0.4,0.5l0.4,0.9l0.4-0.1l0.8-1.4l0.8-2.4l0.4-0.3l0.4-0.1l0.4,0.3l0.4-0.3l0.8-2.4l1.1-2.1l0.4,0.4l0.4-0.7l0.8-3.6l0.8,0.1
					l0.4,0.6l0.4,1.5l0.4,0.6l0.4,0.1l0.4-0.1l0.4,0.2l0.4,0.8l0.8,2.6l0.4,0.6l0.4-0.3l0.4-0.7l0.4-1l0.4-1.3l0.4,0l0.4,0.1
					l0.4-0.6l0.4,0.3l0.4,0.6l0.4-0.3l0.4,0.1l0.4,0.9l0.4,0.1l0.4-0.6l0.4,0.3l0.4,0.5l0.8-1.1l0.4-0.3l0.8-1.4l0.4,0l0.8-1.4
					l0.4,0.8l0.4,0.5l0.4-0.3l0.8,0.7l0.8-4.1l0.8-1.3l0.4,0l0.8,2.7l0.4,0.3l0.4-0.1l0.8,0l0.8-0.6l0.4,0.3l0.4-0.3l0.8-3.5l0.4-1
					l0.8-3.2l0.4-0.7l0.4-0.1l0.4,0.7l0.8,0.7l0.4,1.1l0.4,0.5l0.4-0.2l1.5,1.2l0.4-0.3l0.4,0l0.4,1.1l0.4,0.4l0.4-1.4l0.4,0l0.4,1
					l0.8-2.1l0.4,1l0.4,0.4l0.4-1.2l0.4,0.1l0.4,0.6l0.4-1.4l0.4-0.9l0.4,0.4l0.4-0.2l0.4-0.4l0.8,1.9l0.8-1.2l0.4-0.2l1.1,1l0.4,0
					l0.4,0.2l0.4-0.1l0.8-3.2l0.4-0.2l0.4,0.3l0.4-1.1l0.4,0l0.4,2l0.4,0.7l0.4-0.3l0.4,1.2l0.4-0.2l0.4-1.5l0.4-0.9l0.4-0.1
					l0.4,0.4l0.4,0.1l1.1-1.6l0.4-0.9l0.4,0.6l0.4,1.8l0.4,0.9l0.4-0.5l0.4-0.1l0.4-0.5l0.4-0.2l0.8,2l0.4,0.4l0.4,0.2l0.4-1.2
					l0.4-2.3l0.4-0.7l0.4-0.1l0.8,0.8l0.4,0.4l0.4-0.1l0.4-0.9l0.4-1.3l0.4-0.5l0.4,0.2l0.4-0.4l0.4,0.7l0.8,0.7l0.8,4l0.4,0.8
					l0.4,0.5l0.4,1l0.4-0.5l1.1-2.3l0.8-0.7l0.4-0.6l0.4-0.9l0.4-0.5l0.4-0.9l0.4-0.4l0.4,0.4l0.4,1.3l0.4,0.7l0.4,0.2l0.4-0.3
					l0.4-0.9l0.8-0.7l0.4,0.2l0.4-0.3l0.4-0.5l0.4,0.5l0.4,0.1l0.4,0.7l0.8,3.7l0.4,0.3l0.4-0.2l0.4-0.6l0.4-1.7l0.4-1l0.4-0.3
					l0.4-1l0.4-0.6l0.4,0l0.4-0.9l0.4-1.2l0.4,0.6l0.4,0.2l0.8-0.7l0.4-0.8l0.8-2.6l0.4-0.2l0.4,0.8l1.1,3.3l0.4,0.1l0.4-0.1
					l0.4-0.3l0.4-0.1l0.4,0.4l0.4,0.8l0.4,0.2l0.4-0.3l1.1-3.4l0.4-0.2l0.4,0.4l0.4,0.2l0.8-1.3l0.4-0.8l0.8-0.3l0.4,0.3l0.4,0.7
					l0.8-0.6l0.4,0.5l0.4,0.1l0.8,2.9l0.4-1l0.8-3.5l0.8-5.1l0.4,0.2l0.4,0.6l0.4-0.1l0.4,0.1l0.4,0.6l0.8,0.4l0.4,0.7l0.8,0.2
					l1.1,3.4l0.4-0.3l0.4-1l1.1-6.3l0.4,0.1l0.4,1.8l0.8,2.6l0.4,1.7l0.4-0.5l0.4-1.3l0.4-0.2l0.8-3l0.4,1.9l0.4,0.2l0.4-0.3
					l0.4,1.3l0.4-0.4l0.4-3.2l0.4-1.3l0.4-0.1l0.4-0.3l0.4-0.5l0.4,0.8l0.4,1.5l0.4-0.5l0.4,1.1l0.4,2.7l0.4,0.4l0.4-0.9l0.4,0
					l0.4-1l0.4-1.6l0.4-0.3l1.1,4.9l0.4,2.2l0.4,1.1l0.8-2.5l0.8-1.5l1.1,2.9l0.8,3.8l0.4-0.3l1.5-7.5l0.4-0.5l0.4,2.2l0.4,1.4
					l0.4-0.2l0.4-0.5l1.5-7.8l0.4,0.8l0.4,1.3l0.4,0l0.4,0.1l0.4,0.5l0.4-1.3l0.4,0.4l0.4,2.3l0.4,1l1.1-3.4l0.4-2.1l0.4-0.5l0.4,3
					l0.8,7.4l1.1,3.2l0.4-0.9l0.4-1.9l0.4-0.2l0.4-0.4l0.4-2.1l0.4,0.3l0.4,0.6l0.4-0.8l0.4,0.4l0.4,1.3l0.4-0.7l0.4,1.1l0.4,2.8
					l0.4-0.2l0.4-0.6l0.4,1l0.8-1.8l0.4-0.1l0.4-0.8l0.4-2.1l0.4-0.1l1.9,6.3l0.4-0.5l0.4-2.3l0.4-1.3l0.4,0.2l0.4-1.5l0.4-2.6
					l0.4,0.3l0.4-1.9l0.4-3l0.4,0.1l1.1,7.9l0.4,0.1l0.8-5.7l0.4-2l0.4,2l0.4,4.6l0.4,2.1l0.4,1.4l0.4,1.9l0.4-0.1l0.4-0.4l0.4,1.5
					l0.4,0l0.4-1.9l0.8-5.1l0.4-1.1l0.4-0.5l0.8,4.1l0.8,1.7l0.4,0.4l0.8-7.4l0.4-1.4l0.4-0.4l0.4,0.1l0.8,7.8l0.4,0.5l0.8-3.2
					l0.4-4.5l0.4-1.9l0.8,4.7l0.4,1.5l0.4,0.1l0.8-1.1l0.4-2.3l0.4-0.6l0.4,2.1l0.4-0.9l0.4-1.4l0.4,0l0.4-0.9l0.4-1.7l0.8-5
					l0.8,2.4l0.4,0l0.8,6.9l0.4-2.2l0.4-3.3l0.4,0.2l0.4-0.7l0.4-3l0.4,0.3l0.4,0.4l1.1,6.1l0.4,0l0.4,3.2l0.4-0.3l0,0"/>
			</g>
		</g>
		<g id="line2d_31">
			<g>
				<g>
					<path id="ma3b6147cd9_2_" class="st3" d="M30,191.6l12-6"/>
				</g>
				<g>
					<path id="ma3b6147cd9_3_" class="st3" d="M253.2,191.6l12-6"/>
				</g>
			</g>
		</g>
		<g id="patch_7">
			<path class="st4" d="M36,315V188.6"/>
		</g>
		<g id="patch_8">
			<path class="st4" d="M259.2,315V188.6"/>
		</g>
		<g id="patch_9">
			<path class="st4" d="M36,315h223.2"/>
		</g>
	</g>
	<g id="axes_3">
		<g id="matplotlib.axis_5">
			<g id="xtick_7">
				<g id="text_21">
					<g transform="translate(28.048437 329.598437)scale(0.1 -0.1)" class="st11">
						<g>
							<path id="DejaVuSans-48_27_" d="M31.8,66.4c-5.1,0-8.9-2.5-11.5-7.5c-2.6-5-3.8-12.5-3.8-22.5c0-10,1.3-17.5,3.8-22.5
								c2.6-5,6.4-7.5,11.5-7.5c5.1,0,8.9,2.5,11.5,7.5c2.6,5,3.8,12.5,3.8,22.5c0,10-1.3,17.5-3.8,22.5
								C40.7,63.9,36.9,66.4,31.8,66.4z M31.8,74.2c8.2,0,14.4-3.2,18.7-9.7c4.3-6.5,6.5-15.8,6.5-28.1c0-12.3-2.2-21.6-6.5-28.1
								C46.2,1.8,40-1.4,31.8-1.4c-8.2,0-14.4,3.2-18.7,9.7c-4.3,6.5-6.5,15.8-6.5,28.1c0,12.3,2.2,21.7,6.5,28.1
								C17.4,71,23.6,74.2,31.8,74.2z"/>
						</g>
						<g>
							<path id="DejaVuSans-46_11_" d="M74.3,12.4h10.3V0H74.3V12.4z"/>
						</g>
						<g>
							<path id="DejaVuSans-48_28_" d="M127.2,66.4c-5.1,0-8.9-2.5-11.5-7.5c-2.6-5-3.8-12.5-3.8-22.5c0-10,1.3-17.5,3.8-22.5
								c2.6-5,6.4-7.5,11.5-7.5c5.1,0,8.9,2.5,11.5,7.5c2.6,5,3.8,12.5,3.8,22.5c0,10-1.3,17.5-3.8,22.5
								C136.1,63.9,132.3,66.4,127.2,66.4z M127.2,74.2c8.2,0,14.4-3.2,18.7-9.7c4.3-6.5,6.5-15.8,6.5-28.1
								c0-12.3-2.2-21.6-6.5-28.1c-4.3-6.5-10.6-9.7-18.7-9.7c-8.2,0-14.4,3.2-18.7,9.7c-4.3,6.5-6.5,15.8-6.5,28.1
								c0,12.3,2.2,21.7,6.5,28.1C112.8,71,119,74.2,127.2,74.2z"/>
						</g>
					</g>
				</g>
			</g>
			<g id="xtick_8">
				<g id="text_22">
					<g transform="translate(72.688438 329.598437)scale(0.1 -0.1)" class="st11">
						<g>
							<path id="DejaVuSans-48_29_" d="M31.8,66.4c-5.1,0-8.9-2.5-11.5-7.5c-2.6-5-3.8-12.5-3.8-22.5c0-10,1.3-17.5,3.8-22.5
								c2.6-5,6.4-7.5,11.5-7.5c5.1,0,8.9,2.5,11.5,7.5c2.6,5,3.8,12.5,3.8,22.5c0,10-1.3,17.5-3.8,22.5
								C40.7,63.9,36.9,66.4,31.8,66.4z M31.8,74.2c8.2,0,14.4-3.2,18.7-9.7c4.3-6.5,6.5-15.8,6.5-28.1c0-12.3-2.2-21.6-6.5-28.1
								C46.2,1.8,40-1.4,31.8-1.4c-8.2,0-14.4,3.2-18.7,9.7c-4.3,6.5-6.5,15.8-6.5,28.1c0,12.3,2.2,21.7,6.5,28.1
								C17.4,71,23.6,74.2,31.8,74.2z"/>
						</g>
						<g>
							<path id="DejaVuSans-46_12_" d="M74.3,12.4h10.3V0H74.3V12.4z"/>
						</g>
						<g>
							<path id="DejaVuSans-50_4_" d="M114.6,8.3H149V0h-46.3v8.3c3.7,3.9,8.8,9.1,15.3,15.6c6.5,6.5,10.5,10.7,12.2,12.6
								c3.2,3.5,5.4,6.5,6.6,9c1.3,2.5,1.9,4.9,1.9,7.2c0,3.9-1.4,7-4.1,9.5c-2.7,2.4-6.3,3.7-10.6,3.7c-3.1,0-6.4-0.5-9.8-1.6
								c-3.4-1.1-7.1-2.7-11-4.9v10c4,1.6,7.7,2.8,11.1,3.6c3.5,0.8,6.6,1.2,9.5,1.2c7.6,0,13.6-1.9,18.1-5.7
								c4.5-3.8,6.7-8.8,6.7-15.1c0-3-0.6-5.8-1.7-8.5c-1.1-2.7-3.2-5.8-6.1-9.5c-0.8-0.9-3.4-3.7-7.8-8.2
								C128.7,22.7,122.5,16.4,114.6,8.3z"/>
						</g>
					</g>
				</g>
			</g>
			<g id="xtick_9">
				<g id="text_23">
					<g transform="translate(117.328438 329.598437)scale(0.1 -0.1)" class="st11">
						<g>
							<path id="DejaVuSans-48_30_" d="M31.8,66.4c-5.1,0-8.9-2.5-11.5-7.5c-2.6-5-3.8-12.5-3.8-22.5c0-10,1.3-17.5,3.8-22.5
								c2.6-5,6.4-7.5,11.5-7.5c5.1,0,8.9,2.5,11.5,7.5c2.6,5,3.8,12.5,3.8,22.5c0,10-1.3,17.5-3.8,22.5
								C40.7,63.9,36.9,66.4,31.8,66.4z M31.8,74.2c8.2,0,14.4-3.2,18.7-9.7c4.3-6.5,6.5-15.8,6.5-28.1c0-12.3-2.2-21.6-6.5-28.1
								C46.2,1.8,40-1.4,31.8-1.4c-8.2,0-14.4,3.2-18.7,9.7c-4.3,6.5-6.5,15.8-6.5,28.1c0,12.3,2.2,21.7,6.5,28.1
								C17.4,71,23.6,74.2,31.8,74.2z"/>
						</g>
						<g>
							<path id="DejaVuSans-46_13_" d="M74.3,12.4h10.3V0H74.3V12.4z"/>
						</g>
						<g>
							<path id="DejaVuSans-52_4_" d="M133.2,64.3l-24.9-38.9h24.9V64.3z M130.6,72.9H143V25.4h10.4v-8.2H143V0h-9.8v17.2h-32.9v9.5
								L130.6,72.9z"/>
						</g>
					</g>
				</g>
			</g>
			<g id="xtick_10">
				<g id="text_24">
					<g transform="translate(161.968438 329.598437)scale(0.1 -0.1)" class="st11">
						<g>
							<path id="DejaVuSans-48_31_" d="M31.8,66.4c-5.1,0-8.9-2.5-11.5-7.5c-2.6-5-3.8-12.5-3.8-22.5c0-10,1.3-17.5,3.8-22.5
								c2.6-5,6.4-7.5,11.5-7.5c5.1,0,8.9,2.5,11.5,7.5c2.6,5,3.8,12.5,3.8,22.5c0,10-1.3,17.5-3.8,22.5
								C40.7,63.9,36.9,66.4,31.8,66.4z M31.8,74.2c8.2,0,14.4-3.2,18.7-9.7c4.3-6.5,6.5-15.8,6.5-28.1c0-12.3-2.2-21.6-6.5-28.1
								C46.2,1.8,40-1.4,31.8-1.4c-8.2,0-14.4,3.2-18.7,9.7c-4.3,6.5-6.5,15.8-6.5,28.1c0,12.3,2.2,21.7,6.5,28.1
								C17.4,71,23.6,74.2,31.8,74.2z"/>
						</g>
						<g>
							<path id="DejaVuSans-46_14_" d="M74.3,12.4h10.3V0H74.3V12.4z"/>
						</g>
						<g>
							<path id="DejaVuSans-54_2_" d="M128.4,40.4c-4.4,0-7.9-1.5-10.5-4.5c-2.6-3-3.9-7.2-3.9-12.4c0-5.2,1.3-9.4,3.9-12.4
								c2.6-3,6.1-4.6,10.5-4.6c4.4,0,7.9,1.5,10.5,4.6c2.6,3.1,3.9,7.2,3.9,12.4c0,5.3-1.3,9.4-3.9,12.4
								C136.4,38.9,132.9,40.4,128.4,40.4z M148,71.3v-9c-2.5,1.2-5,2.1-7.5,2.7c-2.5,0.6-5,0.9-7.5,0.9c-6.5,0-11.5-2.2-14.9-6.6
								c-3.4-4.4-5.4-11-5.9-19.9c1.9,2.8,4.3,5,7.2,6.5c2.9,1.5,6.1,2.3,9.6,2.3c7.3,0,13.1-2.2,17.4-6.7
								c4.2-4.4,6.4-10.5,6.4-18.1c0-7.5-2.2-13.5-6.6-18c-4.4-4.5-10.3-6.8-17.7-6.8c-8.4,0-14.9,3.2-19.3,9.7
								c-4.5,6.5-6.7,15.8-6.7,28.1c0,11.5,2.7,20.7,8.2,27.6c5.5,6.9,12.8,10.3,22,10.3c2.5,0,5-0.2,7.5-0.7S145.3,72.3,148,71.3z"
								/>
						</g>
					</g>
				</g>
			</g>
			<g id="xtick_11">
				<g id="text_25">
					<g transform="translate(206.608438 329.598437)scale(0.1 -0.1)" class="st11">
						<g>
							<path id="DejaVuSans-48_32_" d="M31.8,66.4c-5.1,0-8.9-2.5-11.5-7.5c-2.6-5-3.8-12.5-3.8-22.5c0-10,1.3-17.5,3.8-22.5
								c2.6-5,6.4-7.5,11.5-7.5c5.1,0,8.9,2.5,11.5,7.5c2.6,5,3.8,12.5,3.8,22.5c0,10-1.3,17.5-3.8,22.5
								C40.7,63.9,36.9,66.4,31.8,66.4z M31.8,74.2c8.2,0,14.4-3.2,18.7-9.7c4.3-6.5,6.5-15.8,6.5-28.1c0-12.3-2.2-21.6-6.5-28.1
								C46.2,1.8,40-1.4,31.8-1.4c-8.2,0-14.4,3.2-18.7,9.7c-4.3,6.5-6.5,15.8-6.5,28.1c0,12.3,2.2,21.7,6.5,28.1
								C17.4,71,23.6,74.2,31.8,74.2z"/>
						</g>
						<g>
							<path id="DejaVuSans-46_15_" d="M74.3,12.4h10.3V0H74.3V12.4z"/>
						</g>
						<g>
							<path id="DejaVuSans-56_2_" d="M127.2,34.6c-4.7,0-8.4-1.3-11.1-3.8c-2.7-2.5-4-6-4-10.3c0-4.4,1.3-7.8,4-10.4
								c2.7-2.5,6.4-3.8,11.1-3.8c4.7,0,8.4,1.3,11.1,3.8c2.7,2.5,4.1,6,4.1,10.3c0,4.4-1.3,7.8-4,10.3
								C135.6,33.4,131.9,34.6,127.2,34.6z M117.3,38.8c-4.2,1-7.5,3-9.9,5.9c-2.4,2.9-3.5,6.4-3.5,10.6c0,5.8,2.1,10.4,6.2,13.8
								c4.2,3.4,9.8,5.1,17.1,5.1c7.3,0,13-1.7,17.1-5.1c4.1-3.4,6.2-8,6.2-13.8c0-4.2-1.2-7.7-3.5-10.6c-2.4-2.9-5.6-4.9-9.8-5.9
								c4.8-1.1,8.4-3.3,11.1-6.5c2.7-3.2,4-7.2,4-11.8c0-7.1-2.2-12.5-6.5-16.3c-4.3-3.8-10.5-5.7-18.5-5.7c-8,0-14.2,1.9-18.5,5.7
								c-4.3,3.8-6.5,9.2-6.5,16.3c0,4.6,1.3,8.6,4,11.8C108.9,35.5,112.6,37.7,117.3,38.8z M113.7,54.4c0-3.8,1.2-6.7,3.5-8.8
								c2.4-2.1,5.7-3.2,9.9-3.2c4.2,0,7.6,1.1,9.9,3.2c2.4,2.1,3.6,5.1,3.6,8.8c0,3.8-1.2,6.7-3.6,8.8c-2.4,2.1-5.7,3.2-9.9,3.2
								c-4.3,0-7.6-1.1-9.9-3.2C114.9,61.1,113.7,58.2,113.7,54.4z"/>
						</g>
					</g>
				</g>
			</g>
			<g id="xtick_12">
				<g id="text_26">
					<g transform="translate(251.248437 329.598437)scale(0.1 -0.1)" class="st11">
						<g>
							<path id="DejaVuSans-49_5_" d="M12.4,8.3h16.1v55.6L11,60.4v9l17.4,3.5h9.9V8.3h16.1V0h-42V8.3z"/>
						</g>
						<g>
							<path id="DejaVuSans-46_16_" d="M74.3,12.4h10.3V0H74.3V12.4z"/>
						</g>
						<g>
							<path id="DejaVuSans-48_33_" d="M127.2,66.4c-5.1,0-8.9-2.5-11.5-7.5c-2.6-5-3.8-12.5-3.8-22.5c0-10,1.3-17.5,3.8-22.5
								c2.6-5,6.4-7.5,11.5-7.5c5.1,0,8.9,2.5,11.5,7.5c2.6,5,3.8,12.5,3.8,22.5c0,10-1.3,17.5-3.8,22.5
								C136.1,63.9,132.3,66.4,127.2,66.4z M127.2,74.2c8.2,0,14.4-3.2,18.7-9.7c4.3-6.5,6.5-15.8,6.5-28.1
								c0-12.3-2.2-21.6-6.5-28.1c-4.3-6.5-10.6-9.7-18.7-9.7c-8.2,0-14.4,3.2-18.7,9.7c-4.3,6.5-6.5,15.8-6.5,28.1
								c0,12.3,2.2,21.7,6.5,28.1C112.8,71,119,74.2,127.2,74.2z"/>
						</g>
					</g>
				</g>
			</g>
		</g>
		<g id="matplotlib.axis_6">
			<g id="ytick_12">
				<g id="text_28">
					<g transform="translate(13.096875 318.799219)scale(0.1 -0.1)" class="st11">
						<g>
							<path id="DejaVuSans-48_34_" d="M31.8,66.4c-5.1,0-8.9-2.5-11.5-7.5c-2.6-5-3.8-12.5-3.8-22.5c0-10,1.3-17.5,3.8-22.5
								c2.6-5,6.4-7.5,11.5-7.5c5.1,0,8.9,2.5,11.5,7.5c2.6,5,3.8,12.5,3.8,22.5c0,10-1.3,17.5-3.8,22.5
								C40.7,63.9,36.9,66.4,31.8,66.4z M31.8,74.2c8.2,0,14.4-3.2,18.7-9.7c4.3-6.5,6.5-15.8,6.5-28.1c0-12.3-2.2-21.6-6.5-28.1
								C46.2,1.8,40-1.4,31.8-1.4c-8.2,0-14.4,3.2-18.7,9.7c-4.3,6.5-6.5,15.8-6.5,28.1c0,12.3,2.2,21.7,6.5,28.1
								C17.4,71,23.6,74.2,31.8,74.2z"/>
						</g>
						<g>
							<path id="DejaVuSans-46_17_" d="M74.3,12.4h10.3V0H74.3V12.4z"/>
						</g>
						<g>
							<path id="DejaVuSans-48_35_" d="M127.2,66.4c-5.1,0-8.9-2.5-11.5-7.5c-2.6-5-3.8-12.5-3.8-22.5c0-10,1.3-17.5,3.8-22.5
								c2.6-5,6.4-7.5,11.5-7.5c5.1,0,8.9,2.5,11.5,7.5c2.6,5,3.8,12.5,3.8,22.5c0,10-1.3,17.5-3.8,22.5
								C136.1,63.9,132.3,66.4,127.2,66.4z M127.2,74.2c8.2,0,14.4-3.2,18.7-9.7c4.3-6.5,6.5-15.8,6.5-28.1
								c0-12.3-2.2-21.6-6.5-28.1c-4.3-6.5-10.6-9.7-18.7-9.7c-8.2,0-14.4,3.2-18.7,9.7c-4.3,6.5-6.5,15.8-6.5,28.1
								c0,12.3,2.2,21.7,6.5,28.1C112.8,71,119,74.2,127.2,74.2z"/>
						</g>
					</g>
				</g>
			</g>
			<g id="ytick_13">
				<g id="text_29">
					<g transform="translate(13.096875 264.439219)scale(0.1 -0.1)" class="st11">
						<g>
							<path id="DejaVuSans-48_36_" d="M31.8,66.4c-5.1,0-8.9-2.5-11.5-7.5c-2.6-5-3.8-12.5-3.8-22.5c0-10,1.3-17.5,3.8-22.5
								c2.6-5,6.4-7.5,11.5-7.5c5.1,0,8.9,2.5,11.5,7.5c2.6,5,3.8,12.5,3.8,22.5c0,10-1.3,17.5-3.8,22.5
								C40.7,63.9,36.9,66.4,31.8,66.4z M31.8,74.2c8.2,0,14.4-3.2,18.7-9.7c4.3-6.5,6.5-15.8,6.5-28.1c0-12.3-2.2-21.6-6.5-28.1
								C46.2,1.8,40-1.4,31.8-1.4c-8.2,0-14.4,3.2-18.7,9.7c-4.3,6.5-6.5,15.8-6.5,28.1c0,12.3,2.2,21.7,6.5,28.1
								C17.4,71,23.6,74.2,31.8,74.2z"/>
						</g>
						<g>
							<path id="DejaVuSans-46_18_" d="M74.3,12.4h10.3V0H74.3V12.4z"/>
						</g>
						<g>
							<path id="DejaVuSans-50_5_" d="M114.6,8.3H149V0h-46.3v8.3c3.7,3.9,8.8,9.1,15.3,15.6c6.5,6.5,10.5,10.7,12.2,12.6
								c3.2,3.5,5.4,6.5,6.6,9c1.3,2.5,1.9,4.9,1.9,7.2c0,3.9-1.4,7-4.1,9.5c-2.7,2.4-6.3,3.7-10.6,3.7c-3.1,0-6.4-0.5-9.8-1.6
								c-3.4-1.1-7.1-2.7-11-4.9v10c4,1.6,7.7,2.8,11.1,3.6c3.5,0.8,6.6,1.2,9.5,1.2c7.6,0,13.6-1.9,18.1-5.7
								c4.5-3.8,6.7-8.8,6.7-15.1c0-3-0.6-5.8-1.7-8.5c-1.1-2.7-3.2-5.8-6.1-9.5c-0.8-0.9-3.4-3.7-7.8-8.2
								C128.7,22.7,122.5,16.4,114.6,8.3z"/>
						</g>
					</g>
				</g>
			</g>
			<g id="ytick_14">
				<g id="text_30">
					<g transform="translate(13.096875 210.079219)scale(0.1 -0.1)" class="st11">
						<g>
							<path id="DejaVuSans-48_37_" d="M31.8,66.4c-5.1,0-8.9-2.5-11.5-7.5c-2.6-5-3.8-12.5-3.8-22.5c0-10,1.3-17.5,3.8-22.5
								c2.6-5,6.4-7.5,11.5-7.5c5.1,0,8.9,2.5,11.5,7.5c2.6,5,3.8,12.5,3.8,22.5c0,10-1.3,17.5-3.8,22.5
								C40.7,63.9,36.9,66.4,31.8,66.4z M31.8,74.2c8.2,0,14.4-3.2,18.7-9.7c4.3-6.5,6.5-15.8,6.5-28.1c0-12.3-2.2-21.6-6.5-28.1
								C46.2,1.8,40-1.4,31.8-1.4c-8.2,0-14.4,3.2-18.7,9.7c-4.3,6.5-6.5,15.8-6.5,28.1c0,12.3,2.2,21.7,6.5,28.1
								C17.4,71,23.6,74.2,31.8,74.2z"/>
						</g>
						<g>
							<path id="DejaVuSans-46_19_" d="M74.3,12.4h10.3V0H74.3V12.4z"/>
						</g>
						<g>
							<path id="DejaVuSans-52_5_" d="M133.2,64.3l-24.9-38.9h24.9V64.3z M130.6,72.9H143V25.4h10.4v-8.2H143V0h-9.8v17.2h-32.9v9.5
								L130.6,72.9z"/>
						</g>
					</g>
				</g>
			</g>
			<g id="ytick_15">
				<g id="text_31">
					<g transform="translate(13.096875 155.719219)scale(0.1 -0.1)" class="st11">
						<g>
							<path id="DejaVuSans-48_38_" d="M31.8,66.4c-5.1,0-8.9-2.5-11.5-7.5c-2.6-5-3.8-12.5-3.8-22.5c0-10,1.3-17.5,3.8-22.5
								c2.6-5,6.4-7.5,11.5-7.5c5.1,0,8.9,2.5,11.5,7.5c2.6,5,3.8,12.5,3.8,22.5c0,10-1.3,17.5-3.8,22.5
								C40.7,63.9,36.9,66.4,31.8,66.4z M31.8,74.2c8.2,0,14.4-3.2,18.7-9.7c4.3-6.5,6.5-15.8,6.5-28.1c0-12.3-2.2-21.6-6.5-28.1
								C46.2,1.8,40-1.4,31.8-1.4c-8.2,0-14.4,3.2-18.7,9.7c-4.3,6.5-6.5,15.8-6.5,28.1c0,12.3,2.2,21.7,6.5,28.1
								C17.4,71,23.6,74.2,31.8,74.2z"/>
						</g>
						<g>
							<path id="DejaVuSans-46_20_" d="M74.3,12.4h10.3V0H74.3V12.4z"/>
						</g>
						<g>
							<path id="DejaVuSans-54_3_" d="M128.4,40.4c-4.4,0-7.9-1.5-10.5-4.5c-2.6-3-3.9-7.2-3.9-12.4c0-5.2,1.3-9.4,3.9-12.4
								c2.6-3,6.1-4.6,10.5-4.6c4.4,0,7.9,1.5,10.5,4.6c2.6,3.1,3.9,7.2,3.9,12.4c0,5.3-1.3,9.4-3.9,12.4
								C136.4,38.9,132.9,40.4,128.4,40.4z M148,71.3v-9c-2.5,1.2-5,2.1-7.5,2.7c-2.5,0.6-5,0.9-7.5,0.9c-6.5,0-11.5-2.2-14.9-6.6
								c-3.4-4.4-5.4-11-5.9-19.9c1.9,2.8,4.3,5,7.2,6.5c2.9,1.5,6.1,2.3,9.6,2.3c7.3,0,13.1-2.2,17.4-6.7
								c4.2-4.4,6.4-10.5,6.4-18.1c0-7.5-2.2-13.5-6.6-18c-4.4-4.5-10.3-6.8-17.7-6.8c-8.4,0-14.9,3.2-19.3,9.7
								c-4.5,6.5-6.7,15.8-6.7,28.1c0,11.5,2.7,20.7,8.2,27.6s12.8,10.3,22,10.3c2.5,0,5-0.2,7.5-0.7C142.6,73,145.3,72.3,148,71.3z
								"/>
						</g>
					</g>
				</g>
			</g>
			<g id="ytick_16">
				<g id="text_32">
					<g transform="translate(13.096875 101.359219)scale(0.1 -0.1)" class="st11">
						<g>
							<path id="DejaVuSans-48_39_" d="M31.8,66.4c-5.1,0-8.9-2.5-11.5-7.5c-2.6-5-3.8-12.5-3.8-22.5c0-10,1.3-17.5,3.8-22.5
								c2.6-5,6.4-7.5,11.5-7.5c5.1,0,8.9,2.5,11.5,7.5c2.6,5,3.8,12.5,3.8,22.5c0,10-1.3,17.5-3.8,22.5
								C40.7,63.9,36.9,66.4,31.8,66.4z M31.8,74.2c8.2,0,14.4-3.2,18.7-9.7c4.3-6.5,6.5-15.8,6.5-28.1c0-12.3-2.2-21.6-6.5-28.1
								C46.2,1.8,40-1.4,31.8-1.4c-8.2,0-14.4,3.2-18.7,9.7c-4.3,6.5-6.5,15.8-6.5,28.1c0,12.3,2.2,21.7,6.5,28.1
								C17.4,71,23.6,74.2,31.8,74.2z"/>
						</g>
						<g>
							<path id="DejaVuSans-46_21_" d="M74.3,12.4h10.3V0H74.3V12.4z"/>
						</g>
						<g>
							<path id="DejaVuSans-56_3_" d="M127.2,34.6c-4.7,0-8.4-1.3-11.1-3.8c-2.7-2.5-4-6-4-10.3c0-4.4,1.3-7.8,4-10.4
								c2.7-2.5,6.4-3.8,11.1-3.8s8.4,1.3,11.1,3.8c2.7,2.5,4.1,6,4.1,10.3c0,4.4-1.3,7.8-4,10.3C135.6,33.4,131.9,34.6,127.2,34.6z
								 M117.3,38.8c-4.2,1-7.5,3-9.9,5.9c-2.4,2.9-3.5,6.4-3.5,10.6c0,5.8,2.1,10.4,6.2,13.8c4.2,3.4,9.8,5.1,17.1,5.1
								c7.3,0,13-1.7,17.1-5.1c4.1-3.4,6.2-8,6.2-13.8c0-4.2-1.2-7.7-3.5-10.6c-2.4-2.9-5.6-4.9-9.8-5.9c4.8-1.1,8.4-3.3,11.1-6.5
								c2.7-3.2,4-7.2,4-11.8c0-7.1-2.2-12.5-6.5-16.3c-4.3-3.8-10.5-5.7-18.5-5.7c-8,0-14.2,1.9-18.5,5.7
								c-4.3,3.8-6.5,9.2-6.5,16.3c0,4.6,1.3,8.6,4,11.8C108.9,35.5,112.6,37.7,117.3,38.8z M113.7,54.4c0-3.8,1.2-6.7,3.5-8.8
								c2.4-2.1,5.7-3.2,9.9-3.2c4.2,0,7.6,1.1,9.9,3.2c2.4,2.1,3.6,5.1,3.6,8.8c0,3.8-1.2,6.7-3.6,8.8c-2.4,2.1-5.7,3.2-9.9,3.2
								c-4.3,0-7.6-1.1-9.9-3.2C114.9,61.1,113.7,58.2,113.7,54.4z"/>
						</g>
					</g>
				</g>
			</g>
			<g id="ytick_17">
				<g id="text_33">
					<g transform="translate(13.096875 46.999219)scale(0.1 -0.1)" class="st11">
						<g>
							<path id="DejaVuSans-49_6_" d="M12.4,8.3h16.1v55.6L11,60.4v9l17.4,3.5h9.9V8.3h16.1V0h-42V8.3z"/>
						</g>
						<g>
							<path id="DejaVuSans-46_22_" d="M74.3,12.4h10.3V0H74.3V12.4z"/>
						</g>
						<g>
							<path id="DejaVuSans-48_40_" d="M127.2,66.4c-5.1,0-8.9-2.5-11.5-7.5c-2.6-5-3.8-12.5-3.8-22.5c0-10,1.3-17.5,3.8-22.5
								c2.6-5,6.4-7.5,11.5-7.5c5.1,0,8.9,2.5,11.5,7.5c2.6,5,3.8,12.5,3.8,22.5c0,10-1.3,17.5-3.8,22.5
								C136.1,63.9,132.3,66.4,127.2,66.4z M127.2,74.2c8.2,0,14.4-3.2,18.7-9.7c4.3-6.5,6.5-15.8,6.5-28.1
								c0-12.3-2.2-21.6-6.5-28.1c-4.3-6.5-10.6-9.7-18.7-9.7c-8.2,0-14.4,3.2-18.7,9.7c-4.3,6.5-6.5,15.8-6.5,28.1
								c0,12.3,2.2,21.7,6.5,28.1C112.8,71,119,74.2,127.2,74.2z"/>
						</g>
					</g>
				</g>
			</g>
		</g>
	</g>
	<text transform="matrix(1 0 0 1 205.2911 128.8401)" class="st12 st13">HKme</text>
	<text transform="matrix(1 0 0 1 205.2912 157.4767)" class="st12 st13">HKme</text>
	<text transform="matrix(1 0 0 1 205.2912 142.7858)" class="st12 st13">HKme</text>
</g>
</svg>
