<?xml version="1.0" encoding="utf-8"?>
<!-- Generator: Adobe Illustrator 22.1.0, SVG Export Plug-In . SVG Version: 6.00 Build 0)  -->
<svg version="1.1" id="Layer_1" xmlns="http://www.w3.org/2000/svg" xmlns:xlink="http://www.w3.org/1999/xlink" x="0px" y="0px"
	 viewBox="0 0 288 216" style="enable-background:new 0 0 288 216;" xml:space="preserve">
<style type="text/css">
	.st0{fill:#FFFFFF;}
	.st1{clip-path:url(#SVGID_2_);fill:#FFFFFF;stroke:#FFFFFF;stroke-width:1.000000e-02;}
	.st2{stroke:#000000;stroke-width:0.8;stroke-linejoin:round;}
	.st3{fill:none;stroke:#000000;stroke-width:0.8;stroke-linecap:square;}
</style>
<g id="figure_1">
	<g id="axes_2">
		<g id="patch_5">
			<path class="st0" d="M225.6,189.2h8.2l0-163.1l-8.2,0L225.6,189.2z"/>
		</g>
		<g id="patch_6">
			<g>
				<defs>
					<rect id="SVGID_1_" x="225.6" y="26.1" width="8.2" height="163.1"/>
				</defs>
				<clipPath id="SVGID_2_">
					<use xlink:href="#SVGID_1_"  style="overflow:visible;"/>
				</clipPath>
				<path class="st1" d="M225.6,189.2v-0.6l0-161.8v-0.6l8.2,0v0.6l0,161.8v0.6l0,0H225.6z"/>
			</g>
		</g>
		
			<image style="overflow:visible;enable-background:new    ;" width="17" height="340" id="imaged646941368" xlink:href="A91766BCE98BABEB.png"  transform="matrix(0.48 0 0 -0.48 225.4577 189.3324)">
		</image>
		<g id="matplotlib.axis_3">
		</g>
		<g id="matplotlib.axis_4">
			<g id="ytick_27">
				<g id="line2d_56">
					<g>
						<g>
							<path id="me264ec81a6_12_" class="st2" d="M237.2,188.5"/>
							<path id="me264ec81a6_1_" class="st2" d="M233.7,188.5"/>
						</g>
					</g>
				</g>
			</g>
			<g id="ytick_28">
				<g id="line2d_57">
					<g>
						<g>
							<path id="me264ec81a6_11_" class="st2" d="M237.2,164.6"/>
							<path id="me264ec81a6_2_" class="st2" d="M233.7,164.6"/>
						</g>
					</g>
				</g>
			</g>
			<g id="ytick_29">
				<g id="line2d_58">
					<g>
						<g>
							<path id="me264ec81a6_10_" class="st2" d="M237.2,140.7"/>
							<path id="me264ec81a6_4_" class="st2" d="M233.7,140.7"/>
						</g>
					</g>
				</g>
			</g>
			<g id="ytick_30">
				<g id="line2d_59">
					<g>
						<g>
							<path id="me264ec81a6_8_" class="st2" d="M237.2,116.8"/>
							<path id="me264ec81a6_7_" class="st2" d="M233.7,116.8"/>
						</g>
					</g>
				</g>
			</g>
			<g id="ytick_31">
				<g id="line2d_60">
					<g>
						<g>
							<path id="me264ec81a6_9_" class="st2" d="M237.2,92.9"/>
							<path id="me264ec81a6_3_" class="st2" d="M233.7,92.9"/>
						</g>
					</g>
				</g>
			</g>
			<g id="ytick_32">
				<g id="line2d_61">
					<g>
						<g>
							<path id="me264ec81a6_6_" class="st2" d="M233.7,69"/>
						</g>
					</g>
				</g>
			</g>
			<g id="ytick_33">
				<g id="line2d_62">
					<g>
						<g>
							<path id="me264ec81a6_13_" class="st2" d="M233.7,45.1"/>
						</g>
					</g>
				</g>
				<g id="text_16">
					<g transform="translate(240.874 48.46127)scale(0.1 -0.1)">
						<g>
							<path id="Helvetica-30_18_" d="M1.7,31.4"/>
						</g>
					</g>
				</g>
			</g>
		</g>
		<g id="LineCollection_1">
		</g>
		<g id="patch_7">
			<path class="st3" d="M225.6,189.2l0-163.1"/>
		</g>
		<g id="patch_8">
			<path class="st3" d="M225.6,189.2h8.2"/>
		</g>
		<g id="patch_9">
			<path class="st3" d="M225.6,189.2v-0.6l0-161.8v-0.6l8.2,0v0.6l0,161.8v0.6H225.6z"/>
		</g>
	</g>
</g>
</svg>
